<svg xmlns="http://www.w3.org/2000/svg" xmlns:xlink="http://www.w3.org/1999/xlink" xmlns:lucid="lucid" width="1360" height="1760"><g transform="translate(0 0)" lucid:page-tab-id="0_0"><path d="M0 0h1360v1760H0z" fill="#fff"/><path d="M400 438.63v290.43c0 5.53-4.48 10-10 10s-10 4.48-10 10v290.44" fill="none"/><path d="M400 438.63v5.1m0 5.1V459m0 5.1v10.2m0 5.1v10.18m0 5.1v10.2m0 5.08v10.2m0 5.1v10.18m0 5.1v10.2m0 5.08v10.2m0 5.1v10.18m0 5.1v10.18m0 5.1v10.2m0 5.1v10.18m0 5.1v10.18m0 5.1v10.2m0 5.08v10.2m0 5.1v10.18m0 5.1v10.2m0 5.08v10.2m0 5.1v5.08l-.5 3.16-.93 1.8m-3.62 3.6l-1.8.93-3.15.5-3.16.52-1.8.93m-3.6 3.6l-.93 1.8-.5 3.16v5.1m0 5.1v10.2m0 5.08v10.2m0 5.1V800m0 5.1v10.18m0 5.1v10.2m0 5.08v10.2m0 5.1v10.18m0 5.1v10.2m0 5.08v10.2m0 5.1V907m0 5.1v10.2m0 5.08v10.2m0 5.1v10.18m0 5.1v10.18m0 5.1v10.2m0 5.1v10.18m0 5.1V1014m0 5.1v10.2m0 5.08v5.1" stroke="#666" fill="none"/><path d="M400.5 438.64h-1v-.5h1z" fill="#666"/><path d="M380 1039.5v.5" stroke="#666" fill="none"/><path d="M219.75 299.75c0 10.9-8.84 19.75-19.75 19.75-10.9 0-19.75-8.84-19.75-19.75 0-10.9 8.84-19.75 19.75-19.75 10.9 0 19.75 8.84 19.75 19.75z" stroke="#666" stroke-width="2" fill-opacity="0"/><path d="M160 288c0-4.42 3.58-8 8-8h64c4.42 0 8 3.58 8 8v142c0 4.42-3.58 8-8 8h-64c-4.42 0-8-3.58-8-8z" fill="none"/><path d="M200 319.5v47.3c0 4.42 1.92 11.03 4.28 14.76L240 438m-40-63.2L160 438m0-98.75h80" stroke="#666" stroke-width="2" fill="none"/><path d="M640.5 1039.5h-1v-5h1zm0-10h-1v-10.03h1zm0-15.04h-1v-10h1zm0-15.02h-1v-10h1zm0-15.02h-1v-10h1zm0-15.02h-1v-10.02h1zm0-15.02h-1v-10.02h1zm0-15.03h-1v-10h1zm0-15.02h-1v-10h1zm0-15.02h-1v-10h1zm0-15h-1v-10.03h1zm0-15.03h-1v-10.02h1zm0-15.02h-1v-10.02h1zm0-15.03h-1v-10h1zm0-15.02h-1v-10h1zm0-15.02h-1v-10h1zm0-15.02h-1v-10.02h1zm0-15.02h-1v-10.02h1zm0-15.03h-1v-10h1zm0-15h-1v-10.02h1zm0-31.06h-1v-9h1zm0-14h-1v-9.43h1zm0-65.43h-1v-4.67h1zm0-9.68h-1V628.9h1zm0-15.02h-1v-10.02h1zm0-15.03h-1v-10h1zm0-15.02h-1v-10h1zm0-15.02h-1v-10h1zm0-15.02h-1v-10h1zm0-15h-1v-10.03h1zm0-15.03h-1v-10.02h1zm0-15.03h-1v-10h1zm0-15.02h-1v-10h1zm0-15.02h-1v-10h1zm0-15.02h-1v-10.02h1zm0-15.02h-1v-10.02h1zm0-15.03h-1v-5h1zM640.5 438.64h-1v-.5h1zM640.5 1040h-1v-.5h1z" fill="#666"/><path d="M880 438.63v600.87" fill="none"/><path d="M880 438.63v5m0 5v10.03m0 5v10.02m0 5v10.02m0 5v10.02m0 5v10.02m0 5v10.03m0 5v10.02m0 5v10m0 5.02v10m0 5.02v10m0 5.02v10m0 5.02v10.02m0 5v10.02m0 5v10.02m0 5v10.02m0 5V684m0 5v10.03m0 5v10.03m0 5v10.02m0 5v10.02m0 5v10.02m0 5v10m0 5.02v10.02m0 5v10.02m0 5v10.02m0 5v10.02m0 5v10.02m0 5v10.03m0 5v10.02m0 5v10.02m0 5v10m0 5.02v10m0 5.02v10m0 5.02v10.02m0 5v10.02m0 5v10.02m0 5v10.02m0 5v10.02m0 5v10.03m0 5v5" stroke="#666" fill="none"/><path d="M880.5 438.64h-1v-.5h1z" fill="#666"/><path d="M880 1039.5v.5" stroke="#666" fill="none"/><path d="M1120 438.63v600.87" fill="none"/><path d="M1120 438.63v5m0 5v10.03m0 5v10.02m0 5v10.02m0 5v10.02m0 5v10.02m0 5v10.03m0 5v10.02m0 5v10m0 5.02v10m0 5.02v10m0 5.02v10m0 5.02v10.02m0 5v10.02m0 5v10.02m0 5v10.02m0 5V684m0 5v10.03m0 5v10.03m0 5v10.02m0 5v10.02m0 5v10.02m0 5v10m0 5.02v10.02m0 5v10.02m0 5v10.02m0 5v10.02m0 5v10.02m0 5v10.03m0 5v10.02m0 5v10.02m0 5v10m0 5.02v10m0 5.02v10m0 5.02v10.02m0 5v10.02m0 5v10.02m0 5v10.02m0 5v10.02m0 5v10.03m0 5v5" stroke="#666" fill="none"/><path d="M1120.5 438.64h-1v-.5h1z" fill="#666"/><path d="M1120 1039.5v.5" stroke="#666" fill="none"/><path d="M190 476.13c0-4.42 3.58-8 8-8h4c4.42 0 8 3.58 8 8V992c0 4.42-3.58 8-8 8h-4c-4.42 0-8-3.58-8-8z" stroke="#000" stroke-opacity="0" fill="#ffb781"/><path d="M320 326.13c0-4.42 3.58-8 8-8h144c4.42 0 8 3.58 8 8v104c0 4.42-3.58 8-8 8H328c-4.42 0-8-3.58-8-8z" stroke="#000" stroke-opacity="0" fill="#ff9e56"/><use xlink:href="#a" transform="matrix(1,0,0,1,320,318.1272371296978) translate(30.1408024691358 64.94444444444444)"/><path d="M560 326.13c0-4.42 3.58-8 8-8h144c4.42 0 8 3.58 8 8v104c0 4.42-3.58 8-8 8H568c-4.42 0-8-3.58-8-8z" stroke="#000" stroke-opacity="0" fill="#ffb781"/><use xlink:href="#b" transform="matrix(1,0,0,1,560,318.1272371296978) translate(31.65314814814814 64.94444444444444)"/><use xlink:href="#c" transform="matrix(1,0,0,1,560,318.1272371296978) translate(79.96179012345678 64.94444444444444)"/><path d="M800 326.13c0-4.42 3.58-8 8-8h144c4.42 0 8 3.58 8 8v104c0 4.42-3.58 8-8 8H808c-4.42 0-8-3.58-8-8z" stroke="#000" stroke-opacity="0" fill="#ffd1ae"/><use xlink:href="#d" transform="matrix(1,0,0,1,800,318.1272371296978) translate(30.054382716049375 53.69444444444444)"/><use xlink:href="#c" transform="matrix(1,0,0,1,800,318.1272371296978) translate(58.90246913580246 72.36111111111111)"/><path d="M390 556.13c0-4.42 3.58-8 8-8h4c4.42 0 8 3.58 8 8v204c0 4.42-3.58 8-8 8h-4c-4.42 0-8-3.58-8-8zM870 676.13c0-4.42 3.58-8 8-8h4c4.42 0 8 3.58 8 8v64c0 4.42-3.58 8-8 8h-4c-4.42 0-8-3.58-8-8zM630 576.13c0-4.42 3.58-8 8-8h4c4.42 0 8 3.58 8 8v64c0 4.42-3.58 8-8 8h-4c-4.42 0-8-3.58-8-8zM870 856.13c0-4.42 3.58-8 8-8h4c4.42 0 8 3.58 8 8v64c0 4.42-3.58 8-8 8h-4c-4.42 0-8-3.58-8-8z" stroke="#000" stroke-opacity="0" fill="#ffb781"/><path d="M1040 326.13c0-4.42 3.58-8 8-8h144c4.42 0 8 3.58 8 8v104c0 4.42-3.58 8-8 8h-144c-4.42 0-8-3.58-8-8z" stroke="#000" stroke-opacity="0" fill="#ffeadb"/><use xlink:href="#e" transform="matrix(1,0,0,1,1040,318.1272371296978) translate(11.841419753086408 53.69444444444444)"/><use xlink:href="#f" transform="matrix(1,0,0,1,1040,318.1272371296978) translate(77.43401234567901 53.69444444444444)"/><use xlink:href="#g" transform="matrix(1,0,0,1,1040,318.1272371296978) translate(58.90246913580246 72.36111111111111)"/><path d="M390 836.13c0-4.42 3.58-8 8-8h4c4.42 0 8 3.58 8 8V992c0 4.42-3.58 8-8 8h-4c-4.42 0-8-3.58-8-8z" stroke="#000" stroke-opacity="0" fill="#ffb781"/><path d="M373.62 555.97v1h-27.4v-1zM210.5 529.3v-1h43.3v1zM210.5 529.3h-.5v-1h.5zM388.38 556.47l-14.26 4.63v-9.27z" fill="#666"/><path d="M390 556.47l-16.38 5.32v-10.65zm-15.38 3.95l12.14-3.95-12.14-3.95z" fill="#666"/><use xlink:href="#h" transform="matrix(1,0,0,1,253.78703703703704,523.9655246796557) translate(0.005000000000002558 12.444444444444446)"/><use xlink:href="#i" transform="matrix(1,0,0,1,253.78703703703704,523.9655246796557) translate(29.387716049382718 12.444444444444446)"/><use xlink:href="#j" transform="matrix(1,0,0,1,253.78703703703704,523.9655246796557) translate(21.61425925925926 31.111111111111118)"/><path d="M455.67 532.85l-1.8 1.38-1.83 2.4-1.14 2.74-.4 3.02v21.94l-.42 3.2-1.24 3-2 2.6-2.6 2-3 1.25-3.2.4H410.5v-1h27.47l3-.4 2.77-1.13 2.4-1.83 1.82-2.4 1.14-2.75.4-3.02v-21.96l.42-3.2 1.24-3 2-2.6 2.5-1.93zm168.1-2.57l3 1.24 2.6 2 1.98 2.6 1.24 3 .4 3.2v11.65h-1V542.4l-.38-3.03-1.14-2.75-1.84-2.4-2.4-1.83-2.74-1.15-3.02-.4h-39.6v-1h39.67zM410.5 576.8h-.5v-1h.5zM632.5 568.74l-4.62-14.27h9.27z" fill="#666"/><path d="M632.5 570.35l-5.3-16.38h10.64zm-3.93-15.38l3.94 12.15 3.96-12.15z" fill="#666"/><use xlink:href="#k" transform="matrix(1,0,0,1,455.6690043269591,511.6883247868423) translate(0.005000000000002558 12.444444444444446)"/><use xlink:href="#l" transform="matrix(1,0,0,1,455.6690043269591,511.6883247868423) translate(62.184012345679015 12.444444444444446)"/><use xlink:href="#m" transform="matrix(1,0,0,1,455.6690043269591,511.6883247868423) translate(44.01858024691359 31.111111111111118)"/><path d="M631.27 645.43h-2.07v-1h2.07zm-6.2 0h-4.13v-1h4.13zm-8.27 0h-4.13v-1h4.13zm-8.26 0h-4.13v-1h4.14zm-8.26 0h-4.14v-1h4.14zm-8.27 0h-4.12v-1H592zm-8.25 0h-4.14v-1h4.15zm-8.27 0h-4.13v-1h4.13zm-8.26 0h-4.13v-1h4.12zm-8.27 0h-4.13v-1h4.13zm-8.26 0h-4.14v-1h4.13zm-8.27 0h-4.14v-1h4.13zm-10.3-1h2.03v1h-2.1l-2.2-.3.12-.98zm-7.6-3.14l1.68 1.28-.6.8-1.8-1.38-1.37-1.8.8-.6zm-3.15-7.65l.28 2.18-1 .13-.27-2.18-.3-2.18 1-.13zm-3.42-8.22l1.37 1.8-.8.6-1.3-1.7-1.68-1.28.6-.8zm-6.05-3.14l-.12.98-2.14-.28h-2.03v-1h2.1zm-8.4.7h-4.12v-1h4.12zm-8.23 0h-4.12v-1h4.12zm-8.23 0h-4.12v-1h4.12zm-8.23 0h-4.1v-1h4.1zm-8.22 0h-4.12v-1h4.12zm-8.23 0h-4.12v-1h4.12zm-8.23 0H450v-1h4.12zm-8.23 0h-4.13v-1h4.12zm-8.24 0h-4.12v-1h4.12zm-8.23 0h-4.12v-1h4.13zm-8.23 0h-4.12v-1h4.12zm-8.23 0h-2.06v-1h2.07z" fill="#666"/><path d="M632.1 645.43h-.85v-1h.18zM428.45 612.75l-16.5 9.75 16.5 9.75-.5.86L410 622.5l17.94-10.6z" fill="#666"/><use xlink:href="#n" transform="matrix(1,0,0,1,442.21357806906826,600.1586714767661) translate(0 12.444444444444446)"/><use xlink:href="#o" transform="matrix(1,0,0,1,442.21357806906826,600.1586714767661) translate(97.61111111111111 12.444444444444446)"/><use xlink:href="#p" transform="matrix(1,0,0,1,442.21357806906826,600.1586714767661) translate(133.56172839506172 12.444444444444446)"/><path d="M853.62 676.1v1h-22.08v-1zm-443.12-3.53v-1h74.28v1zM410.5 672.57h-.5v-1h.5zM868.38 676.6l-14.26 4.65v-9.27z" fill="#666"/><path d="M870 676.6l-16.38 5.34V671.3zm-15.38 3.96l12.14-3.95-12.14-3.94z" fill="#666"/><use xlink:href="#q" transform="matrix(1,0,0,1,484.7770636085951,648.6120865695509) translate(0 12.444444444444446)"/><use xlink:href="#r" transform="matrix(1,0,0,1,484.7770636085951,648.6120865695509) translate(0 31.111111111111118)"/><use xlink:href="#s" transform="matrix(1,0,0,1,484.7770636085951,648.6120865695509) translate(43.94444444444444 31.111111111111118)"/><use xlink:href="#t" transform="matrix(1,0,0,1,484.7770636085951,648.6120865695509) translate(77.64814814814815 31.111111111111118)"/><use xlink:href="#u" transform="matrix(1,0,0,1,484.7770636085951,648.6120865695509) translate(100.89506172839506 31.111111111111118)"/><use xlink:href="#v" transform="matrix(1,0,0,1,484.7770636085951,648.6120865695509) translate(143.24074074074076 31.111111111111118)"/><use xlink:href="#w" transform="matrix(1,0,0,1,484.7770636085951,648.6120865695509) translate(175.12962962962965 31.111111111111118)"/><use xlink:href="#x" transform="matrix(1,0,0,1,484.7770636085951,648.6120865695509) translate(257.962962962963 31.111111111111118)"/><use xlink:href="#y" transform="matrix(1,0,0,1,484.7770636085951,648.6120865695509) translate(285.5308641975309 31.111111111111118)"/><use xlink:href="#z" transform="matrix(1,0,0,1,484.7770636085951,648.6120865695509) translate(0 49.777777777777786)"/><use xlink:href="#A" transform="matrix(1,0,0,1,484.7770636085951,648.6120865695509) translate(4.320987654320988 49.777777777777786)"/><use xlink:href="#B" transform="matrix(1,0,0,1,484.7770636085951,648.6120865695509) translate(86.20370370370371 49.777777777777786)"/><use xlink:href="#C" transform="matrix(1,0,0,1,484.7770636085951,648.6120865695509) translate(116.45061728395063 49.777777777777786)"/><use xlink:href="#D" transform="matrix(1,0,0,1,484.7770636085951,648.6120865695509) translate(175.12962962962965 49.777777777777786)"/><use xlink:href="#E" transform="matrix(1,0,0,1,484.7770636085951,648.6120865695509) translate(225.25308641975312 49.777777777777786)"/><path d="M869.5 740.14h-2.03v-1h2.03zm-6.1 0h-4.04v-1h4.05zm-8.1 0h-4.06v-1h4.06zm-8.12 0h-4.05v-1h4.05zm-8.1 0H835v-1h4.07zm-8.13 0h-4.06v-1h4.05zm-8.1 0h-4.07v-1h4.06zm-8.13 0h-4.06v-1h4.06zm-8.1 0h-4.07v-1h4.06zm-8.13 0h-4.07v-1h4.06zm-8.12 0h-4.06v-1h4.06zm-8.12 0h-4.06v-1h4.06zm-8.1 0h-4.07v-1h4.05zm-8.13 0h-4.06v-1h4.06zm-247.8-4.54h-4.04v-1h4.04zm-8.1 0h-4.04v-1h4.04zm-8.1 0H498v-1h4.04zm-8.1 0h-4.04v-1h4.04zm-8.1 0h-4.04v-1h4.04zm-8.1 0h-4.04v-1h4.04zm-8.1 0h-4.04v-1h4.04zm-8.1 0h-4.04v-1h4.04zm-8.1 0h-4.04v-1h4.04zm-8.1 0h-4.04v-1h4.04zm-8.1 0h-4.04v-1h4.04zm-8.1 0h-4.04v-1h4.04zm-8.1 0h-4.05v-1h4.05zm-8.1 0h-2.02v-1h2.03zM870 740.13h-.5v-1h.5z" fill="#666"/><path d="M428.45 725.35l-16.5 9.75 16.5 9.75-.5.86L410 735.1l17.94-10.6z" fill="#666"/><use xlink:href="#F" transform="matrix(1,0,0,1,521.7345679012345,728.0363275612864) translate(0 12.444444444444446)"/><use xlink:href="#t" transform="matrix(1,0,0,1,521.7345679012345,728.0363275612864) translate(52.62962962962963 12.444444444444446)"/><use xlink:href="#u" transform="matrix(1,0,0,1,521.7345679012345,728.0363275612864) translate(75.87654320987654 12.444444444444446)"/><use xlink:href="#G" transform="matrix(1,0,0,1,521.7345679012345,728.0363275612864) translate(118.22222222222223 12.444444444444446)"/><use xlink:href="#H" transform="matrix(1,0,0,1,521.7345679012345,728.0363275612864) translate(134.5987654320988 12.444444444444446)"/><use xlink:href="#I" transform="matrix(1,0,0,1,521.7345679012345,728.0363275612864) translate(202.8271604938272 12.444444444444446)"/><path d="M634.27 839.8l2.8 1.64 2.1 2.47 1.16 3.07.17 1.74.54 3.04 1.46 2.52 2.2 1.87 2.77 1.04 1.6.15h1.57v1h-1.6l-1.8-.16-3.06-1.16-2.46-2.1-1.64-2.8-.58-3.26-.15-1.64-1.05-2.78-1.87-2.2-2.5-1.46-3.02-.53H410.5v-1H631zm219.35 17.52v1h-4.35v-1zM410.5 840.23h-.5v-1h.5zM868.38 857.82l-14.26 4.64v-9.27z" fill="#666"/><path d="M870 857.82l-16.38 5.33V852.5zm-15.38 3.95l12.14-3.95-12.14-3.94z" fill="#666"/><g><use xlink:href="#J" transform="matrix(1,0,0,1,650.6359734957996,839.1575392417271) translate(0 12.444444444444446)"/><use xlink:href="#K" transform="matrix(1,0,0,1,650.6359734957996,839.1575392417271) translate(44.93827160493827 12.444444444444446)"/><use xlink:href="#L" transform="matrix(1,0,0,1,650.6359734957996,839.1575392417271) translate(114.03086419753086 12.444444444444446)"/><use xlink:href="#M" transform="matrix(1,0,0,1,650.6359734957996,839.1575392417271) translate(139.04938271604937 12.444444444444446)"/><use xlink:href="#N" transform="matrix(1,0,0,1,650.6359734957996,839.1575392417271) translate(0 31.111111111111118)"/><use xlink:href="#O" transform="matrix(1,0,0,1,650.6359734957996,839.1575392417271) translate(49.21604938271605 31.111111111111118)"/><use xlink:href="#P" transform="matrix(1,0,0,1,650.6359734957996,839.1575392417271) translate(98.38888888888889 31.111111111111118)"/></g><path d="M869.74 921.83h-2v-1h2zm-6.04 0h-4.02v-1h4.02zm-8.04 0h-4.03v-1h4.03zm-8.05 0h-4.02v-1h4.03zm-8.04 0h-4.03v-1h4.03zm-8.05 0h-4.02v-1h4.03zm-8.04 0h-4.03v-1h4.03zm-8.05 0h-4.02v-1h4.03zm-8.04 0h-4.03v-1h4.03zm-8.05 0h-4.02v-1h4.03zm-80.5 0h-4v-1h4zm-8.04 0h-4.02v-1h4.02zm-8.05 0h-4v-1h4zm-8.04 0h-4.02v-1h4.02zm-8.05 0h-4v-1h4zm-8.04 0h-4.02v-1h4.02zm-8.05 0h-4v-1h4zm-8.04 0h-4.02v-1h4.02zm-8.05 0h-4v-1h4zm-8.04 0h-4.02v-1h4.02zm-8.05 0h-4v-1h4zm-8.04 0h-4.02v-1h4.02zm-8.05 0h-4v-1h4zm-8.04 0h-4.02v-1h4.02zm-8.05 0h-4v-1h4zm-8.04 0h-4.02v-1h4.02zm-8.04 0H586v-1H590zm-8.05 0h-4.03v-1h4.03zm-8.05 0h-4.03v-1h4.02zm-8.05 0h-4.03v-1h4.03zm-8.05 0h-4.03v-1h4.02zm-8.05 0h-4.03v-1h4.03zm-8.05 0h-4.03v-1h4.02zm-8.05 0h-4.03v-1h4.03zm-8.05 0h-4.03v-1h4.02zm-8.05 0h-4.03v-1h4.03zm-8.05 0h-4.03v-1h4.02zm-8.05 0h-4.03v-1h4.03zm-8.05 0h-4.03v-1h4.02zm-8.05 0h-4.03v-1h4.03zm-8.05 0h-4.03v-1h4.02zm-8.05 0h-4.03v-1h4.03zm-8.05 0h-4.03v-1h4.02zm-8.05 0h-4.02v-1h4.02zm-8.05 0h-4.02v-1h4.02zm-8.05 0h-4.02v-1h4.02zm-8.05 0H425v-1h4.02zm-8.05 0h-4.02v-1h4.02zm-8.05 0h-2v-1h2zM870.34 921.83h-.6v-1h.4z" fill="#666"/><path d="M428.45 911.58l-16.5 9.75 16.5 9.75-.5.86-17.95-10.6 17.94-10.62z" fill="#666"/><g><use xlink:href="#Q" transform="matrix(1,0,0,1,719.1706448444521,911.9936860521531) translate(0 12.444444444444446)"/><use xlink:href="#R" transform="matrix(1,0,0,1,719.1706448444521,911.9936860521531) translate(45.75925925925927 12.444444444444446)"/></g><path d="M80 228.13h440v20l-10 10H80z" fill="#fe5900"/><path d="M80 228.13h1200v828.75H80z" stroke="#666" fill="none"/><path d="M520 228.13v20l-10 10H80" stroke="#666" fill="#fe5900"/><g><use xlink:href="#S" transform="matrix(1,0,0,1,88,228.1272371296978) translate(0 18.11111111111111)"/><use xlink:href="#T" transform="matrix(1,0,0,1,88,228.1272371296978) translate(22.425925925925927 18.11111111111111)"/><use xlink:href="#U" transform="matrix(1,0,0,1,88,228.1272371296978) translate(92.94444444444444 18.11111111111111)"/><use xlink:href="#V" transform="matrix(1,0,0,1,88,228.1272371296978) translate(127.46913580246914 18.11111111111111)"/></g><path d="M410.58 84.75c0-1.38 1.12-2.5 2.5-2.5h531.78c1.38 0 2.5 1.12 2.5 2.5v40.93c0 1.38-1.12 2.5-2.5 2.5H413.08c-1.38 0-2.5-1.12-2.5-2.5z" stroke="#000" stroke-opacity="0" stroke-width="2" fill="#fff" fill-opacity="0"/><g><use xlink:href="#W" transform="matrix(1,0,0,1,410.58202048142823,82.25420834896622) translate(117.16666666666666 27.083333333333336)"/><use xlink:href="#X" transform="matrix(1,0,0,1,410.58202048142823,82.25420834896622) translate(180.2037037037037 27.083333333333336)"/><use xlink:href="#Y" transform="matrix(1,0,0,1,410.58202048142823,82.25420834896622) translate(313.31481481481484 27.083333333333336)"/></g><path d="M504.4 126.68h369.63M504.43 126.68h-1.02M874 126.68h1.03" stroke="#b2b2b2" stroke-width="2" fill="none"/><path d="M411.1 134.5c0-1.38 1.13-2.5 2.5-2.5H946c1.38 0 2.5 1.12 2.5 2.5v25.22c0 1.38-1.12 2.5-2.5 2.5H413.6c-1.37 0-2.5-1.12-2.5-2.5z" stroke="#000" stroke-opacity="0" stroke-width="2" fill="#fff" fill-opacity="0"/><g><use xlink:href="#Z" transform="matrix(1,0,0,1,411.1132284743787,131.9986773270898) translate(170.71913580246914 17.454444444444448)"/><use xlink:href="#aa" transform="matrix(1,0,0,1,411.1132284743787,131.9986773270898) translate(223.3487654320988 17.454444444444448)"/><use xlink:href="#ab" transform="matrix(1,0,0,1,411.1132284743787,131.9986773270898) translate(270.83641975308643 17.454444444444448)"/><use xlink:href="#ac" transform="matrix(1,0,0,1,411.1132284743787,131.9986773270898) translate(283.4969135802469 17.454444444444448)"/><use xlink:href="#ad" transform="matrix(1,0,0,1,411.1132284743787,131.9986773270898) translate(315.429012345679 17.454444444444448)"/><use xlink:href="#ae" transform="matrix(1,0,0,1,411.1132284743787,131.9986773270898) translate(332.71296296296293 17.454444444444448)"/></g><path d="M930.5 734.66l-.85 2.06-2.05.85h-21.22v-1h21.02l1.5-.62.6-1.48v-13.2h1zm-.85-47.5l.85 2.04v13.4h-1v-13.2l-.6-1.5-1.5-.6h-36.9v-1h37.1zM890.5 687.3h-.5v-1h.5zM905.88 741.7l-14.26-4.63 14.26-4.64z" fill="#666"/><path d="M906.38 742.4L890 737.06l16.38-5.33zm-13.14-5.33l12.14 3.94v-7.88z" fill="#666"/><g><use xlink:href="#af" transform="matrix(1,0,0,1,892.0401234567901,702.598151892384) translate(0.005000000000002558 12.444444444444446)"/><use xlink:href="#ag" transform="matrix(1,0,0,1,892.0401234567901,702.598151892384) translate(4.325987654320991 12.444444444444446)"/><use xlink:href="#ah" transform="matrix(1,0,0,1,892.0401234567901,702.598151892384) translate(45.72104938271605 12.444444444444446)"/></g><path d="M890.5 872.67h37c1.38 0 2.5 1.12 2.5 2.5v39.42c0 1.37-1.12 2.5-2.5 2.5h-21.12" stroke="#666" fill="none"/><path d="M890.5 873.17h-.5v-1h.5z" fill="#666"/><path d="M891.62 917.1l14.26-4.64v9.27z" stroke="#666" fill="#666"/><defs><path fill="#fff" d="M35-132v-50h50v50H35zM35 0v-49h50V0H35" id="ai"/><path fill="#fff" d="M275 0h-61l-44-196L126 0H64L0-248h53L97-49l45-199h58l43 199 44-199h52" id="aj"/><path fill="#fff" d="M185-48c-13 30-37 53-82 52C43 2 14-33 14-96s30-98 90-98c62 0 83 45 84 108H66c0 31 8 55 39 56 18 0 30-7 34-22zm-45-69c5-46-57-63-70-21-2 6-4 13-4 21h74" id="ak"/><path fill="#fff" d="M135-194c52 0 70 43 70 98 0 56-19 99-73 100-30 1-46-15-58-35L72 0H24l1-261h50v104c11-23 29-37 60-37zM114-30c31 0 40-27 40-66 0-37-7-63-39-63s-41 28-41 65c0 36 8 64 40 64" id="al"/><path fill="#fff" d="M182-130c37 4 62 22 62 59C244 23 116-4 24 0v-248c84 5 203-23 205 63 0 31-19 50-47 55zM76-148c40-3 101 13 101-30 0-44-60-28-101-31v61zm0 110c48-3 116 14 116-37 0-48-69-32-116-35v72" id="am"/><path fill="#fff" d="M135-150c-39-12-60 13-60 57V0H25l-1-190h47c2 13-1 29 3 40 6-28 27-53 61-41v41" id="an"/><path fill="#fff" d="M110-194c64 0 96 36 96 99 0 64-35 99-97 99-61 0-95-36-95-99 0-62 34-99 96-99zm-1 164c35 0 45-28 45-65 0-40-10-65-43-65-34 0-45 26-45 65 0 36 10 65 43 65" id="ao"/><path fill="#fff" d="M231 0h-52l-39-155L100 0H48L-1-190h46L77-45c9-52 24-97 36-145h53l37 145 32-145h46" id="ap"/><path fill="#fff" d="M137-138c1-29-70-34-71-4 15 46 118 7 119 86 1 83-164 76-172 9l43-7c4 19 20 25 44 25 33 8 57-30 24-41C81-84 22-81 20-136c-2-80 154-74 161-7" id="aq"/><g id="a"><use transform="matrix(0.04320987654320988,0,0,0.04320987654320988,0,0)" xlink:href="#ai"/><use transform="matrix(0.04320987654320988,0,0,0.04320987654320988,5.1419753086419755,0)" xlink:href="#aj"/><use transform="matrix(0.04320987654320988,0,0,0.04320987654320988,19.487654320987655,0)" xlink:href="#ak"/><use transform="matrix(0.04320987654320988,0,0,0.04320987654320988,28.129629629629633,0)" xlink:href="#al"/><use transform="matrix(0.04320987654320988,0,0,0.04320987654320988,37.592592592592595,0)" xlink:href="#am"/><use transform="matrix(0.04320987654320988,0,0,0.04320987654320988,48.783950617283956,0)" xlink:href="#an"/><use transform="matrix(0.04320987654320988,0,0,0.04320987654320988,54.833333333333336,0)" xlink:href="#ao"/><use transform="matrix(0.04320987654320988,0,0,0.04320987654320988,64.2962962962963,0)" xlink:href="#ap"/><use transform="matrix(0.04320987654320988,0,0,0.04320987654320988,76.39506172839506,0)" xlink:href="#aq"/><use transform="matrix(0.04320987654320988,0,0,0.04320987654320988,85.03703703703704,0)" xlink:href="#ak"/><use transform="matrix(0.04320987654320988,0,0,0.04320987654320988,93.67901234567903,0)" xlink:href="#an"/></g><path fill="#666" d="M24-248c93 1 206-16 204 79-1 75-69 88-152 82V0H24v-248zm52 121c47 0 100 7 100-41 0-47-54-39-100-39v80" id="ar"/><path fill="#666" d="M110-194c64 0 96 36 96 99 0 64-35 99-97 99-61 0-95-36-95-99 0-62 34-99 96-99zm-1 164c35 0 45-28 45-65 0-40-10-65-43-65-34 0-45 26-45 65 0 36 10 65 43 65" id="as"/><path fill="#666" d="M135-150c-39-12-60 13-60 57V0H25l-1-190h47c2 13-1 29 3 40 6-28 27-53 61-41v41" id="at"/><path fill="#666" d="M115-3C79 11 28 4 28-45v-112H4v-33h27l15-45h31v45h36v33H77v99c-1 23 16 31 38 25v30" id="au"/><path fill="#666" d="M133-34C117-15 103 5 69 4 32 3 11-16 11-54c-1-60 55-63 116-61 1-26-3-47-28-47-18 1-26 9-28 27l-52-2c7-38 36-58 82-57s74 22 75 68l1 82c-1 14 12 18 25 15v27c-30 8-71 5-69-32zm-48 3c29 0 43-24 42-57-32 0-66-3-65 30 0 17 8 27 23 27" id="av"/><path fill="#666" d="M25 0v-261h50V0H25" id="aw"/><g id="b"><use transform="matrix(0.04320987654320988,0,0,0.04320987654320988,0,0)" xlink:href="#ar"/><use transform="matrix(0.04320987654320988,0,0,0.04320987654320988,10.370370370370372,0)" xlink:href="#as"/><use transform="matrix(0.04320987654320988,0,0,0.04320987654320988,19.833333333333336,0)" xlink:href="#at"/><use transform="matrix(0.04320987654320988,0,0,0.04320987654320988,25.88271604938272,0)" xlink:href="#au"/><use transform="matrix(0.04320987654320988,0,0,0.04320987654320988,31.024691358024693,0)" xlink:href="#av"/><use transform="matrix(0.04320987654320988,0,0,0.04320987654320988,39.66666666666667,0)" xlink:href="#aw"/></g><path fill="#666" d="M169-182c-1-43-94-46-97-3 18 66 151 10 154 114 3 95-165 93-204 36-6-8-10-19-12-30l50-8c3 46 112 56 116 5-17-69-150-10-154-114-4-87 153-88 188-35 5 8 8 18 10 28" id="ax"/><path fill="#666" d="M185-48c-13 30-37 53-82 52C43 2 14-33 14-96s30-98 90-98c62 0 83 45 84 108H66c0 31 8 55 39 56 18 0 30-7 34-22zm-45-69c5-46-57-63-70-21-2 6-4 13-4 21h74" id="ay"/><path fill="#666" d="M128 0H69L1-190h53L99-40l48-150h52" id="az"/><g id="c"><use transform="matrix(0.04320987654320988,0,0,0.04320987654320988,0,0)" xlink:href="#ax"/><use transform="matrix(0.04320987654320988,0,0,0.04320987654320988,10.370370370370372,0)" xlink:href="#ay"/><use transform="matrix(0.04320987654320988,0,0,0.04320987654320988,19.01234567901235,0)" xlink:href="#at"/><use transform="matrix(0.04320987654320988,0,0,0.04320987654320988,25.06172839506173,0)" xlink:href="#az"/><use transform="matrix(0.04320987654320988,0,0,0.04320987654320988,33.70370370370371,0)" xlink:href="#ay"/><use transform="matrix(0.04320987654320988,0,0,0.04320987654320988,42.345679012345684,0)" xlink:href="#at"/></g><path fill="#666" d="M199 0l-22-63H83L61 0H9l90-248h61L250 0h-51zm-33-102l-36-108c-10 38-24 72-36 108h72" id="aA"/><path fill="#666" d="M85 4C-2 5 27-109 22-190h50c7 57-23 150 33 157 60-5 35-97 40-157h50l1 190h-47c-2-12 1-28-3-38-12 25-28 42-61 42" id="aB"/><path fill="#666" d="M114-157C55-157 80-60 75 0H25v-261h50l-1 109c12-26 28-41 61-42 86-1 58 113 63 194h-50c-7-57 23-157-34-157" id="aC"/><path fill="#666" d="M25-224v-37h50v37H25zM25 0v-190h50V0H25" id="aD"/><path fill="#666" d="M12 0v-35l95-120H19v-35h142v35L67-36h103V0H12" id="aE"/><path fill="#666" d="M135-194c87-1 58 113 63 194h-50c-7-57 23-157-34-157-59 0-34 97-39 157H25l-1-190h47c2 12-1 28 3 38 12-26 28-41 61-42" id="aF"/><g id="d"><use transform="matrix(0.04320987654320988,0,0,0.04320987654320988,0,0)" xlink:href="#aA"/><use transform="matrix(0.04320987654320988,0,0,0.04320987654320988,11.19135802469136,0)" xlink:href="#aB"/><use transform="matrix(0.04320987654320988,0,0,0.04320987654320988,20.654320987654323,0)" xlink:href="#au"/><use transform="matrix(0.04320987654320988,0,0,0.04320987654320988,25.796296296296298,0)" xlink:href="#aC"/><use transform="matrix(0.04320987654320988,0,0,0.04320987654320988,35.25925925925926,0)" xlink:href="#as"/><use transform="matrix(0.04320987654320988,0,0,0.04320987654320988,44.722222222222214,0)" xlink:href="#at"/><use transform="matrix(0.04320987654320988,0,0,0.04320987654320988,50.77160493827161,0)" xlink:href="#aD"/><use transform="matrix(0.04320987654320988,0,0,0.04320987654320988,55.092592592592595,0)" xlink:href="#aE"/><use transform="matrix(0.04320987654320988,0,0,0.04320987654320988,62.870370370370374,0)" xlink:href="#av"/><use transform="matrix(0.04320987654320988,0,0,0.04320987654320988,71.51234567901236,0)" xlink:href="#au"/><use transform="matrix(0.04320987654320988,0,0,0.04320987654320988,76.65432098765433,0)" xlink:href="#aD"/><use transform="matrix(0.04320987654320988,0,0,0.04320987654320988,80.97530864197532,0)" xlink:href="#as"/><use transform="matrix(0.04320987654320988,0,0,0.04320987654320988,90.43827160493828,0)" xlink:href="#aF"/></g><path fill="#666" d="M24 0v-248h195v40H76v63h132v40H76v65h150V0H24" id="aG"/><path fill="#666" d="M144 0l-44-69L55 0H2l70-98-66-92h53l41 62 40-62h54l-67 91 71 99h-54" id="aH"/><g id="e"><use transform="matrix(0.04320987654320988,0,0,0.04320987654320988,0,0)" xlink:href="#aG"/><use transform="matrix(0.04320987654320988,0,0,0.04320987654320988,10.370370370370372,0)" xlink:href="#aH"/><use transform="matrix(0.04320987654320988,0,0,0.04320987654320988,19.01234567901235,0)" xlink:href="#au"/><use transform="matrix(0.04320987654320988,0,0,0.04320987654320988,24.154320987654323,0)" xlink:href="#ay"/><use transform="matrix(0.04320987654320988,0,0,0.04320987654320988,32.7962962962963,0)" xlink:href="#at"/><use transform="matrix(0.04320987654320988,0,0,0.04320987654320988,38.845679012345684,0)" xlink:href="#aF"/><use transform="matrix(0.04320987654320988,0,0,0.04320987654320988,48.308641975308646,0)" xlink:href="#av"/><use transform="matrix(0.04320987654320988,0,0,0.04320987654320988,56.95061728395062,0)" xlink:href="#aw"/></g><path fill="#666" d="M240-174c0 40-23 61-54 70L253 0h-59l-57-94H76V0H24v-248c93 4 217-23 216 74zM76-134c48-2 112 12 112-38 0-48-66-32-112-35v73" id="aI"/><path fill="#666" d="M137-138c1-29-70-34-71-4 15 46 118 7 119 86 1 83-164 76-172 9l43-7c4 19 20 25 44 25 33 8 57-30 24-41C81-84 22-81 20-136c-2-80 154-74 161-7" id="aJ"/><path fill="#666" d="M190-63c-7 42-38 67-86 67-59 0-84-38-90-98-12-110 154-137 174-36l-49 2c-2-19-15-32-35-32-30 0-35 28-38 64-6 74 65 87 74 30" id="aK"/><g id="f"><use transform="matrix(0.04320987654320988,0,0,0.04320987654320988,0,0)" xlink:href="#aI"/><use transform="matrix(0.04320987654320988,0,0,0.04320987654320988,11.19135802469136,0)" xlink:href="#ay"/><use transform="matrix(0.04320987654320988,0,0,0.04320987654320988,19.833333333333336,0)" xlink:href="#aJ"/><use transform="matrix(0.04320987654320988,0,0,0.04320987654320988,28.47530864197531,0)" xlink:href="#as"/><use transform="matrix(0.04320987654320988,0,0,0.04320987654320988,37.93827160493827,0)" xlink:href="#aB"/><use transform="matrix(0.04320987654320988,0,0,0.04320987654320988,47.40123456790123,0)" xlink:href="#at"/><use transform="matrix(0.04320987654320988,0,0,0.04320987654320988,53.45061728395062,0)" xlink:href="#aK"/><use transform="matrix(0.04320987654320988,0,0,0.04320987654320988,62.0925925925926,0)" xlink:href="#ay"/></g><g id="g"><use transform="matrix(0.04320987654320988,0,0,0.04320987654320988,0,0)" xlink:href="#ax"/><use transform="matrix(0.04320987654320988,0,0,0.04320987654320988,10.370370370370372,0)" xlink:href="#ay"/><use transform="matrix(0.04320987654320988,0,0,0.04320987654320988,19.01234567901235,0)" xlink:href="#at"/><use transform="matrix(0.04320987654320988,0,0,0.04320987654320988,25.06172839506173,0)" xlink:href="#az"/><use transform="matrix(0.04320987654320988,0,0,0.04320987654320988,33.70370370370371,0)" xlink:href="#ay"/><use transform="matrix(0.04320987654320988,0,0,0.04320987654320988,42.345679012345684,0)" xlink:href="#at"/></g><path fill="#3d4752" d="M143 4C61 4 22-44 18-125c-5-107 100-154 193-111 17 8 29 25 37 43l-32 9c-13-25-37-40-76-40-61 0-88 39-88 99 0 61 29 100 91 101 35 0 62-11 79-27v-45h-74v-28h105v86C228-13 192 4 143 4" id="aL"/><path fill="#3d4752" d="M100-194c63 0 86 42 84 106H49c0 40 14 67 53 68 26 1 43-12 49-29l28 8c-11 28-37 45-77 45C44 4 14-33 15-96c1-61 26-98 85-98zm52 81c6-60-76-77-97-28-3 7-6 17-6 28h103" id="aM"/><path fill="#3d4752" d="M59-47c-2 24 18 29 38 22v24C64 9 27 4 27-40v-127H5v-23h24l9-43h21v43h35v23H59v120" id="aN"/><g id="h"><use transform="matrix(0.04320987654320988,0,0,0.04320987654320988,0,0)" xlink:href="#aL"/><use transform="matrix(0.04320987654320988,0,0,0.04320987654320988,12.098765432098766,0)" xlink:href="#aM"/><use transform="matrix(0.04320987654320988,0,0,0.04320987654320988,20.74074074074074,0)" xlink:href="#aN"/></g><path fill="#3d4752" d="M206 0h-36l-40-164L89 0H53L-1-190h32L70-26l43-164h34l41 164 42-164h31" id="aO"/><path fill="#3d4752" d="M115-194c53 0 69 39 70 98 0 66-23 100-70 100C84 3 66-7 56-30L54 0H23l1-261h32v101c10-23 28-34 59-34zm-8 174c40 0 45-34 45-75 0-40-5-75-45-74-42 0-51 32-51 76 0 43 10 73 51 73" id="aP"/><path fill="#3d4752" d="M115-194c55 1 70 41 70 98S169 2 115 4C84 4 66-9 55-30l1 105H24l-1-265h31l2 30c10-21 28-34 59-34zm-8 174c40 0 45-34 45-75s-6-73-45-74c-42 0-51 32-51 76 0 43 10 73 51 73" id="aQ"/><path fill="#3d4752" d="M141-36C126-15 110 5 73 4 37 3 15-17 15-53c-1-64 63-63 125-63 3-35-9-54-41-54-24 1-41 7-42 31l-33-3c5-37 33-52 76-52 45 0 72 20 72 64v82c-1 20 7 32 28 27v20c-31 9-61-2-59-35zM48-53c0 20 12 33 32 33 41-3 63-29 60-74-43 2-92-5-92 41" id="aR"/><path fill="#3d4752" d="M177-190C167-65 218 103 67 71c-23-6-38-20-44-43l32-5c15 47 100 32 89-28v-30C133-14 115 1 83 1 29 1 15-40 15-95c0-56 16-97 71-98 29-1 48 16 59 35 1-10 0-23 2-32h30zM94-22c36 0 50-32 50-73 0-42-14-75-50-75-39 0-46 34-46 75s6 73 46 73" id="aS"/><g id="i"><use transform="matrix(0.04320987654320988,0,0,0.04320987654320988,0,0)" xlink:href="#aO"/><use transform="matrix(0.04320987654320988,0,0,0.04320987654320988,11.19135802469136,0)" xlink:href="#aM"/><use transform="matrix(0.04320987654320988,0,0,0.04320987654320988,19.833333333333336,0)" xlink:href="#aP"/><use transform="matrix(0.04320987654320988,0,0,0.04320987654320988,28.47530864197531,0)" xlink:href="#aQ"/><use transform="matrix(0.04320987654320988,0,0,0.04320987654320988,37.117283950617285,0)" xlink:href="#aR"/><use transform="matrix(0.04320987654320988,0,0,0.04320987654320988,45.75925925925927,0)" xlink:href="#aS"/><use transform="matrix(0.04320987654320988,0,0,0.04320987654320988,54.40123456790123,0)" xlink:href="#aM"/></g><path fill="#3d4752" d="M114-163C36-179 61-72 57 0H25l-1-190h30c1 12-1 29 2 39 6-27 23-49 58-41v29" id="aT"/><path fill="#3d4752" d="M135-143c-3-34-86-38-87 0 15 53 115 12 119 90S17 21 10-45l28-5c4 36 97 45 98 0-10-56-113-15-118-90-4-57 82-63 122-42 12 7 21 19 24 35" id="aU"/><path fill="#3d4752" d="M100-194c62-1 85 37 85 99 1 63-27 99-86 99S16-35 15-95c0-66 28-99 85-99zM99-20c44 1 53-31 53-75 0-43-8-75-51-75s-53 32-53 75 10 74 51 75" id="aV"/><path fill="#3d4752" d="M84 4C-5 8 30-112 23-190h32v120c0 31 7 50 39 49 72-2 45-101 50-169h31l1 190h-30c-1-10 1-25-2-33-11 22-28 36-60 37" id="aW"/><path fill="#3d4752" d="M96-169c-40 0-48 33-48 73s9 75 48 75c24 0 41-14 43-38l32 2c-6 37-31 61-74 61-59 0-76-41-82-99-10-93 101-131 147-64 4 7 5 14 7 22l-32 3c-4-21-16-35-41-35" id="aX"/><g id="j"><use transform="matrix(0.04320987654320988,0,0,0.04320987654320988,0,0)" xlink:href="#aT"/><use transform="matrix(0.04320987654320988,0,0,0.04320987654320988,5.1419753086419755,0)" xlink:href="#aM"/><use transform="matrix(0.04320987654320988,0,0,0.04320987654320988,13.783950617283953,0)" xlink:href="#aU"/><use transform="matrix(0.04320987654320988,0,0,0.04320987654320988,21.56172839506173,0)" xlink:href="#aV"/><use transform="matrix(0.04320987654320988,0,0,0.04320987654320988,30.203703703703713,0)" xlink:href="#aW"/><use transform="matrix(0.04320987654320988,0,0,0.04320987654320988,38.845679012345684,0)" xlink:href="#aT"/><use transform="matrix(0.04320987654320988,0,0,0.04320987654320988,43.98765432098766,0)" xlink:href="#aX"/><use transform="matrix(0.04320987654320988,0,0,0.04320987654320988,51.76543209876544,0)" xlink:href="#aM"/></g><path fill="#3d4752" d="M233-177c-1 41-23 64-60 70L243 0h-38l-65-103H63V0H30v-248c88 3 205-21 203 71zM63-129c60-2 137 13 137-47 0-61-80-42-137-45v92" id="aY"/><path fill="#3d4752" d="M145-31C134-9 116 4 85 4 32 4 16-35 15-94c0-59 17-99 70-100 32-1 48 14 60 33 0-11-1-24 2-32h30l-1 268h-32zM93-21c41 0 51-33 51-76s-8-73-50-73c-40 0-46 35-46 75s5 74 45 74" id="aZ"/><g id="k"><use transform="matrix(0.04320987654320988,0,0,0.04320987654320988,0,0)" xlink:href="#aY"/><use transform="matrix(0.04320987654320988,0,0,0.04320987654320988,11.19135802469136,0)" xlink:href="#aM"/><use transform="matrix(0.04320987654320988,0,0,0.04320987654320988,19.833333333333336,0)" xlink:href="#aZ"/><use transform="matrix(0.04320987654320988,0,0,0.04320987654320988,28.47530864197531,0)" xlink:href="#aW"/><use transform="matrix(0.04320987654320988,0,0,0.04320987654320988,37.117283950617285,0)" xlink:href="#aM"/><use transform="matrix(0.04320987654320988,0,0,0.04320987654320988,45.75925925925927,0)" xlink:href="#aU"/><use transform="matrix(0.04320987654320988,0,0,0.04320987654320988,53.537037037037045,0)" xlink:href="#aN"/></g><g id="l"><use transform="matrix(0.04320987654320988,0,0,0.04320987654320988,0,0)" xlink:href="#aO"/><use transform="matrix(0.04320987654320988,0,0,0.04320987654320988,11.19135802469136,0)" xlink:href="#aM"/><use transform="matrix(0.04320987654320988,0,0,0.04320987654320988,19.833333333333336,0)" xlink:href="#aP"/><use transform="matrix(0.04320987654320988,0,0,0.04320987654320988,28.47530864197531,0)" xlink:href="#aQ"/><use transform="matrix(0.04320987654320988,0,0,0.04320987654320988,37.117283950617285,0)" xlink:href="#aR"/><use transform="matrix(0.04320987654320988,0,0,0.04320987654320988,45.75925925925927,0)" xlink:href="#aS"/><use transform="matrix(0.04320987654320988,0,0,0.04320987654320988,54.40123456790123,0)" xlink:href="#aM"/></g><g id="m"><use transform="matrix(0.04320987654320988,0,0,0.04320987654320988,0,0)" xlink:href="#aR"/><use transform="matrix(0.04320987654320988,0,0,0.04320987654320988,8.641975308641976,0)" xlink:href="#aX"/><use transform="matrix(0.04320987654320988,0,0,0.04320987654320988,16.419753086419753,0)" xlink:href="#aX"/><use transform="matrix(0.04320987654320988,0,0,0.04320987654320988,24.19753086419753,0)" xlink:href="#aM"/><use transform="matrix(0.04320987654320988,0,0,0.04320987654320988,32.839506172839506,0)" xlink:href="#aU"/><use transform="matrix(0.04320987654320988,0,0,0.04320987654320988,40.617283950617285,0)" xlink:href="#aU"/></g><path fill="#3d4752" d="M106-169C34-169 62-67 57 0H25v-261h32l-1 103c12-21 28-36 61-36 89 0 53 116 60 194h-32v-121c2-32-8-49-39-48" id="ba"/><path fill="#3d4752" d="M117-194c89-4 53 116 60 194h-32v-121c0-31-8-49-39-48C34-167 62-67 57 0H25l-1-190h30c1 10-1 24 2 32 11-22 29-35 61-36" id="bb"/><path fill="#3d4752" d="M24-231v-30h32v30H24zM24 0v-190h32V0H24" id="bc"/><path fill="#3d4752" d="M85-194c31 0 48 13 60 33l-1-100h32l1 261h-30c-2-10 0-23-3-31C134-8 116 4 85 4 32 4 16-35 15-94c0-66 23-100 70-100zm9 24c-40 0-46 34-46 75 0 40 6 74 45 74 42 0 51-32 51-76 0-42-9-74-50-73" id="bd"/><g id="n"><use transform="matrix(0.04320987654320988,0,0,0.04320987654320988,0,0)" xlink:href="#aR"/><use transform="matrix(0.04320987654320988,0,0,0.04320987654320988,8.641975308641976,0)" xlink:href="#aW"/><use transform="matrix(0.04320987654320988,0,0,0.04320987654320988,17.283950617283953,0)" xlink:href="#aN"/><use transform="matrix(0.04320987654320988,0,0,0.04320987654320988,21.60493827160494,0)" xlink:href="#ba"/><use transform="matrix(0.04320987654320988,0,0,0.04320987654320988,30.24691358024692,0)" xlink:href="#aM"/><use transform="matrix(0.04320987654320988,0,0,0.04320987654320988,38.88888888888889,0)" xlink:href="#bb"/><use transform="matrix(0.04320987654320988,0,0,0.04320987654320988,47.53086419753087,0)" xlink:href="#aN"/><use transform="matrix(0.04320987654320988,0,0,0.04320987654320988,51.851851851851855,0)" xlink:href="#bc"/><use transform="matrix(0.04320987654320988,0,0,0.04320987654320988,55.26543209876544,0)" xlink:href="#aX"/><use transform="matrix(0.04320987654320988,0,0,0.04320987654320988,63.043209876543216,0)" xlink:href="#aR"/><use transform="matrix(0.04320987654320988,0,0,0.04320987654320988,71.68518518518519,0)" xlink:href="#aN"/><use transform="matrix(0.04320987654320988,0,0,0.04320987654320988,76.00617283950618,0)" xlink:href="#aM"/><use transform="matrix(0.04320987654320988,0,0,0.04320987654320988,84.64814814814815,0)" xlink:href="#bd"/></g><path fill="#3d4752" d="M266 0h-40l-56-210L115 0H75L2-248h35L96-30l15-64 43-154h32l59 218 59-218h35" id="be"/><g id="o"><use transform="matrix(0.04320987654320988,0,0,0.04320987654320988,0,0)" xlink:href="#be"/><use transform="matrix(0.04320987654320988,0,0,0.04320987654320988,14.34567901234568,0)" xlink:href="#aM"/><use transform="matrix(0.04320987654320988,0,0,0.04320987654320988,22.987654320987655,0)" xlink:href="#aP"/></g><g id="p"><use transform="matrix(0.04320987654320988,0,0,0.04320987654320988,0,0)" xlink:href="#aQ"/><use transform="matrix(0.04320987654320988,0,0,0.04320987654320988,8.641975308641976,0)" xlink:href="#aR"/><use transform="matrix(0.04320987654320988,0,0,0.04320987654320988,17.283950617283953,0)" xlink:href="#aS"/><use transform="matrix(0.04320987654320988,0,0,0.04320987654320988,25.925925925925927,0)" xlink:href="#aM"/></g><path fill="#3d4752" d="M39-94c74 12-11 154 75 146v23c-44 4-70-10-70-52C44-23 55-84 6-82v-22c81 4-7-162 84-157h24v23c-82-15-2 131-75 144" id="bf"/><path fill="#3d4752" d="M24 0v-261h32V0H24" id="bg"/><path fill="#3d4752" d="M76-40C78 24 84 88 6 75V52C86 64 9-79 80-94c-40-6-34-59-34-106 1-29-11-41-40-38v-23c44-4 70 10 70 52 0 47-12 108 38 105v22c-26 1-39 14-38 42" id="bh"/><path fill="#3d4752" d="M0 4l72-265h28L28 4H0" id="bi"/><path fill="#3d4752" d="M-5 72V49h209v23H-5" id="bj"/><path fill="#3d4752" d="M108 0H70L1-190h34L89-25l56-165h34" id="bk"/><path fill="#3d4752" d="M143 0L79-87 56-68V0H24v-261h32v163l83-92h37l-77 82L181 0h-38" id="bl"/><g id="q"><use transform="matrix(0.04320987654320988,0,0,0.04320987654320988,0,0)" xlink:href="#bf"/><use transform="matrix(0.04320987654320988,0,0,0.04320987654320988,5.185185185185186,0)" xlink:href="#aQ"/><use transform="matrix(0.04320987654320988,0,0,0.04320987654320988,13.827160493827162,0)" xlink:href="#aV"/><use transform="matrix(0.04320987654320988,0,0,0.04320987654320988,22.46913580246914,0)" xlink:href="#aT"/><use transform="matrix(0.04320987654320988,0,0,0.04320987654320988,27.611111111111114,0)" xlink:href="#aN"/><use transform="matrix(0.04320987654320988,0,0,0.04320987654320988,31.9320987654321,0)" xlink:href="#aR"/><use transform="matrix(0.04320987654320988,0,0,0.04320987654320988,40.574074074074076,0)" xlink:href="#bg"/><use transform="matrix(0.04320987654320988,0,0,0.04320987654320988,43.98765432098766,0)" xlink:href="#aQ"/><use transform="matrix(0.04320987654320988,0,0,0.04320987654320988,52.62962962962963,0)" xlink:href="#aR"/><use transform="matrix(0.04320987654320988,0,0,0.04320987654320988,61.27160493827161,0)" xlink:href="#aS"/><use transform="matrix(0.04320987654320988,0,0,0.04320987654320988,69.91358024691358,0)" xlink:href="#aM"/><use transform="matrix(0.04320987654320988,0,0,0.04320987654320988,78.55555555555556,0)" xlink:href="#bh"/><use transform="matrix(0.04320987654320988,0,0,0.04320987654320988,83.74074074074075,0)" xlink:href="#bi"/><use transform="matrix(0.04320987654320988,0,0,0.04320987654320988,88.06172839506173,0)" xlink:href="#bj"/><use transform="matrix(0.04320987654320988,0,0,0.04320987654320988,96.70370370370371,0)" xlink:href="#aU"/><use transform="matrix(0.04320987654320988,0,0,0.04320987654320988,104.4814814814815,0)" xlink:href="#aM"/><use transform="matrix(0.04320987654320988,0,0,0.04320987654320988,113.12345679012347,0)" xlink:href="#aT"/><use transform="matrix(0.04320987654320988,0,0,0.04320987654320988,118.26543209876544,0)" xlink:href="#bk"/><use transform="matrix(0.04320987654320988,0,0,0.04320987654320988,126.04320987654323,0)" xlink:href="#bc"/><use transform="matrix(0.04320987654320988,0,0,0.04320987654320988,129.45679012345678,0)" xlink:href="#aX"/><use transform="matrix(0.04320987654320988,0,0,0.04320987654320988,137.23456790123456,0)" xlink:href="#aM"/><use transform="matrix(0.04320987654320988,0,0,0.04320987654320988,145.87654320987653,0)" xlink:href="#aU"/><use transform="matrix(0.04320987654320988,0,0,0.04320987654320988,153.6543209876543,0)" xlink:href="#bi"/><use transform="matrix(0.04320987654320988,0,0,0.04320987654320988,157.9753086419753,0)" xlink:href="#aN"/><use transform="matrix(0.04320987654320988,0,0,0.04320987654320988,162.29629629629628,0)" xlink:href="#aV"/><use transform="matrix(0.04320987654320988,0,0,0.04320987654320988,170.93827160493825,0)" xlink:href="#bl"/><use transform="matrix(0.04320987654320988,0,0,0.04320987654320988,178.71604938271602,0)" xlink:href="#aM"/><use transform="matrix(0.04320987654320988,0,0,0.04320987654320988,187.358024691358,0)" xlink:href="#bb"/></g><path fill="#3d4752" d="M212-179c-10-28-35-45-73-45-59 0-87 40-87 99 0 60 29 101 89 101 43 0 62-24 78-52l27 14C228-24 195 4 139 4 59 4 22-46 18-125c-6-104 99-153 187-111 19 9 31 26 39 46" id="bm"/><g id="r"><use transform="matrix(0.04320987654320988,0,0,0.04320987654320988,0,0)" xlink:href="#bm"/><use transform="matrix(0.04320987654320988,0,0,0.04320987654320988,11.19135802469136,0)" xlink:href="#bg"/><use transform="matrix(0.04320987654320988,0,0,0.04320987654320988,14.60493827160494,0)" xlink:href="#bc"/><use transform="matrix(0.04320987654320988,0,0,0.04320987654320988,18.01851851851852,0)" xlink:href="#aM"/><use transform="matrix(0.04320987654320988,0,0,0.04320987654320988,26.66049382716049,0)" xlink:href="#bb"/><use transform="matrix(0.04320987654320988,0,0,0.04320987654320988,35.30246913580247,0)" xlink:href="#aN"/></g><g id="s"><use transform="matrix(0.04320987654320988,0,0,0.04320987654320988,0,0)" xlink:href="#aS"/><use transform="matrix(0.04320987654320988,0,0,0.04320987654320988,8.641975308641976,0)" xlink:href="#aM"/><use transform="matrix(0.04320987654320988,0,0,0.04320987654320988,17.283950617283953,0)" xlink:href="#aN"/><use transform="matrix(0.04320987654320988,0,0,0.04320987654320988,21.60493827160494,0)" xlink:href="#aU"/></g><path fill="#3d4752" d="M24-231v-30h32v30H24zM-9 49c24 4 33-6 33-30v-209h32V24c2 40-23 58-65 49V49" id="bn"/><g id="t"><use transform="matrix(0.04320987654320988,0,0,0.04320987654320988,0,0)" xlink:href="#bn"/><use transform="matrix(0.04320987654320988,0,0,0.04320987654320988,3.4135802469135808,0)" xlink:href="#aO"/><use transform="matrix(0.04320987654320988,0,0,0.04320987654320988,14.60493827160494,0)" xlink:href="#aN"/></g><g id="u"><use transform="matrix(0.04320987654320988,0,0,0.04320987654320988,0,0)" xlink:href="#aN"/><use transform="matrix(0.04320987654320988,0,0,0.04320987654320988,4.320987654320988,0)" xlink:href="#aV"/><use transform="matrix(0.04320987654320988,0,0,0.04320987654320988,12.962962962962964,0)" xlink:href="#bl"/><use transform="matrix(0.04320987654320988,0,0,0.04320987654320988,20.740740740740744,0)" xlink:href="#aM"/><use transform="matrix(0.04320987654320988,0,0,0.04320987654320988,29.382716049382726,0)" xlink:href="#bb"/></g><g id="v"><use transform="matrix(0.04320987654320988,0,0,0.04320987654320988,0,0)" xlink:href="#aO"/><use transform="matrix(0.04320987654320988,0,0,0.04320987654320988,11.19135802469136,0)" xlink:href="#bc"/><use transform="matrix(0.04320987654320988,0,0,0.04320987654320988,14.60493827160494,0)" xlink:href="#aN"/><use transform="matrix(0.04320987654320988,0,0,0.04320987654320988,18.925925925925927,0)" xlink:href="#ba"/></g><path fill="#3d4752" d="M210-169c-67 3-38 105-44 169h-31v-121c0-29-5-50-35-48C34-165 62-65 56 0H25l-1-190h30c1 10-1 24 2 32 10-44 99-50 107 0 11-21 27-35 58-36 85-2 47 119 55 194h-31v-121c0-29-5-49-35-48" id="bo"/><g id="w"><use transform="matrix(0.04320987654320988,0,0,0.04320987654320988,0,0)" xlink:href="#aQ"/><use transform="matrix(0.04320987654320988,0,0,0.04320987654320988,8.641975308641976,0)" xlink:href="#aR"/><use transform="matrix(0.04320987654320988,0,0,0.04320987654320988,17.283950617283953,0)" xlink:href="#aT"/><use transform="matrix(0.04320987654320988,0,0,0.04320987654320988,22.425925925925927,0)" xlink:href="#aR"/><use transform="matrix(0.04320987654320988,0,0,0.04320987654320988,31.067901234567906,0)" xlink:href="#bo"/><use transform="matrix(0.04320987654320988,0,0,0.04320987654320988,43.98765432098766,0)" xlink:href="#aM"/><use transform="matrix(0.04320987654320988,0,0,0.04320987654320988,52.62962962962963,0)" xlink:href="#aN"/><use transform="matrix(0.04320987654320988,0,0,0.04320987654320988,56.95061728395062,0)" xlink:href="#aM"/><use transform="matrix(0.04320987654320988,0,0,0.04320987654320988,65.5925925925926,0)" xlink:href="#aT"/><use transform="matrix(0.04320987654320988,0,0,0.04320987654320988,70.73456790123457,0)" xlink:href="#aU"/></g><g id="x"><use transform="matrix(0.04320987654320988,0,0,0.04320987654320988,0,0)" xlink:href="#bg"/><use transform="matrix(0.04320987654320988,0,0,0.04320987654320988,3.4135802469135808,0)" xlink:href="#bc"/><use transform="matrix(0.04320987654320988,0,0,0.04320987654320988,6.8271604938271615,0)" xlink:href="#bl"/><use transform="matrix(0.04320987654320988,0,0,0.04320987654320988,14.60493827160494,0)" xlink:href="#aM"/></g><path fill="#3d4752" d="M68-38c1 34 0 65-14 84H32c9-13 17-26 17-46H33v-38h35" id="bp"/><g id="y"><use transform="matrix(0.04320987654320988,0,0,0.04320987654320988,0,0)" xlink:href="#aX"/><use transform="matrix(0.04320987654320988,0,0,0.04320987654320988,7.777777777777779,0)" xlink:href="#bg"/><use transform="matrix(0.04320987654320988,0,0,0.04320987654320988,11.19135802469136,0)" xlink:href="#bc"/><use transform="matrix(0.04320987654320988,0,0,0.04320987654320988,14.60493827160494,0)" xlink:href="#aM"/><use transform="matrix(0.04320987654320988,0,0,0.04320987654320988,23.246913580246915,0)" xlink:href="#bb"/><use transform="matrix(0.04320987654320988,0,0,0.04320987654320988,31.888888888888893,0)" xlink:href="#aN"/><use transform="matrix(0.04320987654320988,0,0,0.04320987654320988,36.20987654320988,0)" xlink:href="#bj"/><use transform="matrix(0.04320987654320988,0,0,0.04320987654320988,44.851851851851855,0)" xlink:href="#bc"/><use transform="matrix(0.04320987654320988,0,0,0.04320987654320988,48.26543209876544,0)" xlink:href="#bd"/><use transform="matrix(0.04320987654320988,0,0,0.04320987654320988,56.90740740740741,0)" xlink:href="#bp"/></g><g id="A"><use transform="matrix(0.04320987654320988,0,0,0.04320987654320988,0,0)" xlink:href="#aT"/><use transform="matrix(0.04320987654320988,0,0,0.04320987654320988,5.1419753086419755,0)" xlink:href="#aM"/><use transform="matrix(0.04320987654320988,0,0,0.04320987654320988,13.783950617283953,0)" xlink:href="#bd"/><use transform="matrix(0.04320987654320988,0,0,0.04320987654320988,22.425925925925934,0)" xlink:href="#bc"/><use transform="matrix(0.04320987654320988,0,0,0.04320987654320988,25.839506172839513,0)" xlink:href="#aT"/><use transform="matrix(0.04320987654320988,0,0,0.04320987654320988,30.981481481481488,0)" xlink:href="#aM"/><use transform="matrix(0.04320987654320988,0,0,0.04320987654320988,39.62345679012346,0)" xlink:href="#aX"/><use transform="matrix(0.04320987654320988,0,0,0.04320987654320988,47.40123456790124,0)" xlink:href="#aN"/><use transform="matrix(0.04320987654320988,0,0,0.04320987654320988,51.72222222222223,0)" xlink:href="#bj"/><use transform="matrix(0.04320987654320988,0,0,0.04320987654320988,60.3641975308642,0)" xlink:href="#aW"/><use transform="matrix(0.04320987654320988,0,0,0.04320987654320988,69.00617283950618,0)" xlink:href="#aT"/><use transform="matrix(0.04320987654320988,0,0,0.04320987654320988,74.14814814814815,0)" xlink:href="#bg"/></g><g id="B"><use transform="matrix(0.04320987654320988,0,0,0.04320987654320988,0,0)" xlink:href="#aR"/><use transform="matrix(0.04320987654320988,0,0,0.04320987654320988,8.641975308641976,0)" xlink:href="#bb"/><use transform="matrix(0.04320987654320988,0,0,0.04320987654320988,17.283950617283953,0)" xlink:href="#bd"/></g><g id="C"><use transform="matrix(0.04320987654320988,0,0,0.04320987654320988,0,0)" xlink:href="#aV"/><use transform="matrix(0.04320987654320988,0,0,0.04320987654320988,8.641975308641976,0)" xlink:href="#aQ"/><use transform="matrix(0.04320987654320988,0,0,0.04320987654320988,17.283950617283953,0)" xlink:href="#aN"/><use transform="matrix(0.04320987654320988,0,0,0.04320987654320988,21.60493827160494,0)" xlink:href="#bc"/><use transform="matrix(0.04320987654320988,0,0,0.04320987654320988,25.018518518518523,0)" xlink:href="#aV"/><use transform="matrix(0.04320987654320988,0,0,0.04320987654320988,33.660493827160494,0)" xlink:href="#bb"/><use transform="matrix(0.04320987654320988,0,0,0.04320987654320988,42.30246913580247,0)" xlink:href="#aR"/><use transform="matrix(0.04320987654320988,0,0,0.04320987654320988,50.94444444444444,0)" xlink:href="#bg"/></g><g id="D"><use transform="matrix(0.04320987654320988,0,0,0.04320987654320988,0,0)" xlink:href="#aU"/><use transform="matrix(0.04320987654320988,0,0,0.04320987654320988,7.777777777777779,0)" xlink:href="#aX"/><use transform="matrix(0.04320987654320988,0,0,0.04320987654320988,15.555555555555557,0)" xlink:href="#aV"/><use transform="matrix(0.04320987654320988,0,0,0.04320987654320988,24.19753086419753,0)" xlink:href="#aQ"/><use transform="matrix(0.04320987654320988,0,0,0.04320987654320988,32.839506172839506,0)" xlink:href="#aM"/><use transform="matrix(0.04320987654320988,0,0,0.04320987654320988,41.48148148148148,0)" xlink:href="#bp"/></g><g id="E"><use transform="matrix(0.04320987654320988,0,0,0.04320987654320988,0,0)" xlink:href="#aU"/><use transform="matrix(0.04320987654320988,0,0,0.04320987654320988,7.777777777777779,0)" xlink:href="#aN"/><use transform="matrix(0.04320987654320988,0,0,0.04320987654320988,12.098765432098766,0)" xlink:href="#aR"/><use transform="matrix(0.04320987654320988,0,0,0.04320987654320988,20.74074074074074,0)" xlink:href="#aN"/><use transform="matrix(0.04320987654320988,0,0,0.04320987654320988,25.061728395061728,0)" xlink:href="#aM"/></g><g id="F"><use transform="matrix(0.04320987654320988,0,0,0.04320987654320988,0,0)" xlink:href="#aT"/><use transform="matrix(0.04320987654320988,0,0,0.04320987654320988,5.1419753086419755,0)" xlink:href="#aM"/><use transform="matrix(0.04320987654320988,0,0,0.04320987654320988,13.783950617283953,0)" xlink:href="#aN"/><use transform="matrix(0.04320987654320988,0,0,0.04320987654320988,18.10493827160494,0)" xlink:href="#aW"/><use transform="matrix(0.04320987654320988,0,0,0.04320987654320988,26.746913580246915,0)" xlink:href="#aT"/><use transform="matrix(0.04320987654320988,0,0,0.04320987654320988,31.888888888888893,0)" xlink:href="#bb"/><use transform="matrix(0.04320987654320988,0,0,0.04320987654320988,40.53086419753087,0)" xlink:href="#aU"/></g><g id="G"><use transform="matrix(0.04320987654320988,0,0,0.04320987654320988,0,0)" xlink:href="#bc"/><use transform="matrix(0.04320987654320988,0,0,0.04320987654320988,3.4135802469135808,0)" xlink:href="#bb"/></g><g id="H"><use transform="matrix(0.04320987654320988,0,0,0.04320987654320988,0,0)" xlink:href="#aT"/><use transform="matrix(0.04320987654320988,0,0,0.04320987654320988,5.1419753086419755,0)" xlink:href="#aM"/><use transform="matrix(0.04320987654320988,0,0,0.04320987654320988,13.783950617283953,0)" xlink:href="#aU"/><use transform="matrix(0.04320987654320988,0,0,0.04320987654320988,21.56172839506173,0)" xlink:href="#aQ"/><use transform="matrix(0.04320987654320988,0,0,0.04320987654320988,30.203703703703713,0)" xlink:href="#aV"/><use transform="matrix(0.04320987654320988,0,0,0.04320987654320988,38.845679012345684,0)" xlink:href="#bb"/><use transform="matrix(0.04320987654320988,0,0,0.04320987654320988,47.48765432098766,0)" xlink:href="#aU"/><use transform="matrix(0.04320987654320988,0,0,0.04320987654320988,55.26543209876544,0)" xlink:href="#aM"/></g><path fill="#3d4752" d="M179-190L93 31C79 59 56 82 12 73V49c39 6 53-20 64-50L1-190h34L92-34l54-156h33" id="bq"/><g id="I"><use transform="matrix(0.04320987654320988,0,0,0.04320987654320988,0,0)" xlink:href="#aP"/><use transform="matrix(0.04320987654320988,0,0,0.04320987654320988,8.641975308641976,0)" xlink:href="#aV"/><use transform="matrix(0.04320987654320988,0,0,0.04320987654320988,17.283950617283953,0)" xlink:href="#bd"/><use transform="matrix(0.04320987654320988,0,0,0.04320987654320988,25.925925925925927,0)" xlink:href="#bq"/></g><g id="J"><use transform="matrix(0.04320987654320988,0,0,0.04320987654320988,0,0)" xlink:href="#aR"/><use transform="matrix(0.04320987654320988,0,0,0.04320987654320988,8.641975308641976,0)" xlink:href="#aX"/><use transform="matrix(0.04320987654320988,0,0,0.04320987654320988,16.419753086419753,0)" xlink:href="#aM"/><use transform="matrix(0.04320987654320988,0,0,0.04320987654320988,25.061728395061728,0)" xlink:href="#aU"/><use transform="matrix(0.04320987654320988,0,0,0.04320987654320988,32.839506172839506,0)" xlink:href="#aU"/></g><g id="K"><use transform="matrix(0.04320987654320988,0,0,0.04320987654320988,0,0)" xlink:href="#aQ"/><use transform="matrix(0.04320987654320988,0,0,0.04320987654320988,8.641975308641976,0)" xlink:href="#aT"/><use transform="matrix(0.04320987654320988,0,0,0.04320987654320988,13.783950617283953,0)" xlink:href="#aV"/><use transform="matrix(0.04320987654320988,0,0,0.04320987654320988,22.425925925925934,0)" xlink:href="#aN"/><use transform="matrix(0.04320987654320988,0,0,0.04320987654320988,26.746913580246915,0)" xlink:href="#aM"/><use transform="matrix(0.04320987654320988,0,0,0.04320987654320988,35.38888888888889,0)" xlink:href="#aX"/><use transform="matrix(0.04320987654320988,0,0,0.04320987654320988,43.16666666666667,0)" xlink:href="#aN"/><use transform="matrix(0.04320987654320988,0,0,0.04320987654320988,47.48765432098766,0)" xlink:href="#aM"/><use transform="matrix(0.04320987654320988,0,0,0.04320987654320988,56.12962962962963,0)" xlink:href="#bd"/></g><g id="L"><use transform="matrix(0.04320987654320988,0,0,0.04320987654320988,0,0)" xlink:href="#aR"/><use transform="matrix(0.04320987654320988,0,0,0.04320987654320988,8.641975308641976,0)" xlink:href="#aQ"/><use transform="matrix(0.04320987654320988,0,0,0.04320987654320988,17.283950617283953,0)" xlink:href="#bc"/></g><g id="M"><use transform="matrix(0.04320987654320988,0,0,0.04320987654320988,0,0)" xlink:href="#aM"/><use transform="matrix(0.04320987654320988,0,0,0.04320987654320988,8.641975308641976,0)" xlink:href="#bb"/><use transform="matrix(0.04320987654320988,0,0,0.04320987654320988,17.283950617283953,0)" xlink:href="#bd"/><use transform="matrix(0.04320987654320988,0,0,0.04320987654320988,25.925925925925927,0)" xlink:href="#aQ"/><use transform="matrix(0.04320987654320988,0,0,0.04320987654320988,34.567901234567906,0)" xlink:href="#aV"/><use transform="matrix(0.04320987654320988,0,0,0.04320987654320988,43.20987654320988,0)" xlink:href="#bc"/><use transform="matrix(0.04320987654320988,0,0,0.04320987654320988,46.62345679012346,0)" xlink:href="#bb"/><use transform="matrix(0.04320987654320988,0,0,0.04320987654320988,55.26543209876544,0)" xlink:href="#aN"/></g><g id="N"><use transform="matrix(0.04320987654320988,0,0,0.04320987654320988,0,0)" xlink:href="#aU"/><use transform="matrix(0.04320987654320988,0,0,0.04320987654320988,7.777777777777779,0)" xlink:href="#aW"/><use transform="matrix(0.04320987654320988,0,0,0.04320987654320988,16.419753086419753,0)" xlink:href="#aQ"/><use transform="matrix(0.04320987654320988,0,0,0.04320987654320988,25.061728395061728,0)" xlink:href="#aQ"/><use transform="matrix(0.04320987654320988,0,0,0.04320987654320988,33.7037037037037,0)" xlink:href="#bg"/><use transform="matrix(0.04320987654320988,0,0,0.04320987654320988,37.117283950617285,0)" xlink:href="#bq"/></g><g id="O"><use transform="matrix(0.04320987654320988,0,0,0.04320987654320988,0,0)" xlink:href="#aP"/><use transform="matrix(0.04320987654320988,0,0,0.04320987654320988,8.641975308641976,0)" xlink:href="#aM"/><use transform="matrix(0.04320987654320988,0,0,0.04320987654320988,17.283950617283953,0)" xlink:href="#aR"/><use transform="matrix(0.04320987654320988,0,0,0.04320987654320988,25.925925925925927,0)" xlink:href="#aT"/><use transform="matrix(0.04320987654320988,0,0,0.04320987654320988,31.067901234567906,0)" xlink:href="#aM"/><use transform="matrix(0.04320987654320988,0,0,0.04320987654320988,39.70987654320988,0)" xlink:href="#aT"/></g><g id="P"><use transform="matrix(0.04320987654320988,0,0,0.04320987654320988,0,0)" xlink:href="#aN"/><use transform="matrix(0.04320987654320988,0,0,0.04320987654320988,4.320987654320988,0)" xlink:href="#aV"/><use transform="matrix(0.04320987654320988,0,0,0.04320987654320988,12.962962962962964,0)" xlink:href="#bl"/><use transform="matrix(0.04320987654320988,0,0,0.04320987654320988,20.740740740740744,0)" xlink:href="#aM"/><use transform="matrix(0.04320987654320988,0,0,0.04320987654320988,29.382716049382726,0)" xlink:href="#bb"/></g><path fill="#3d4752" d="M153-248C145-148 188 4 80 4 36 3 13-21 6-62l32-5c4 25 16 42 43 43 27 0 39-20 39-49v-147H72v-28h81" id="br"/><path fill="#3d4752" d="M185-189c-5-48-123-54-124 2 14 75 158 14 163 119 3 78-121 87-175 55-17-10-28-26-33-46l33-7c5 56 141 63 141-1 0-78-155-14-162-118-5-82 145-84 179-34 5 7 8 16 11 25" id="bs"/><path fill="#3d4752" d="M140-251c81 0 123 46 123 126C263-46 219 4 140 4 59 4 17-45 17-125s42-126 123-126zm0 227c63 0 89-41 89-101s-29-99-89-99c-61 0-89 39-89 99S79-25 140-24" id="bt"/><path fill="#3d4752" d="M190 0L58-211 59 0H30v-248h39L202-35l-2-213h31V0h-41" id="bu"/><g id="Q"><use transform="matrix(0.04320987654320988,0,0,0.04320987654320988,0,0)" xlink:href="#br"/><use transform="matrix(0.04320987654320988,0,0,0.04320987654320988,7.777777777777779,0)" xlink:href="#bs"/><use transform="matrix(0.04320987654320988,0,0,0.04320987654320988,18.148148148148152,0)" xlink:href="#bt"/><use transform="matrix(0.04320987654320988,0,0,0.04320987654320988,30.24691358024692,0)" xlink:href="#bu"/></g><g id="R"><use transform="matrix(0.04320987654320988,0,0,0.04320987654320988,0,0)" xlink:href="#bd"/><use transform="matrix(0.04320987654320988,0,0,0.04320987654320988,8.641975308641976,0)" xlink:href="#aR"/><use transform="matrix(0.04320987654320988,0,0,0.04320987654320988,17.283950617283953,0)" xlink:href="#aN"/><use transform="matrix(0.04320987654320988,0,0,0.04320987654320988,21.60493827160494,0)" xlink:href="#aR"/></g><path fill="#fff" d="M88-194c31-1 46 15 58 34l-1-101h50l1 261h-48c-2-10 0-23-3-31C134-8 116 4 84 4 32 4 16-41 15-95c0-56 19-97 73-99zm17 164c33 0 40-30 41-66 1-37-9-64-41-64s-38 30-39 65c0 43 13 65 39 65" id="bv"/><g id="S"><use transform="matrix(0.04320987654320988,0,0,0.04320987654320988,0,0)" xlink:href="#aq"/><use transform="matrix(0.04320987654320988,0,0,0.04320987654320988,8.641975308641976,0)" xlink:href="#bv"/></g><path fill="#fff" d="M266 0h-40l-56-210L115 0H75L2-248h35L96-30l15-64 43-154h32l59 218 59-218h35" id="bw"/><path fill="#fff" d="M100-194c63 0 86 42 84 106H49c0 40 14 67 53 68 26 1 43-12 49-29l28 8c-11 28-37 45-77 45C44 4 14-33 15-96c1-61 26-98 85-98zm52 81c6-60-76-77-97-28-3 7-6 17-6 28h103" id="bx"/><path fill="#fff" d="M115-194c53 0 69 39 70 98 0 66-23 100-70 100C84 3 66-7 56-30L54 0H23l1-261h32v101c10-23 28-34 59-34zm-8 174c40 0 45-34 45-75 0-40-5-75-45-74-42 0-51 32-51 76 0 43 10 73 51 73" id="by"/><path fill="#fff" d="M115-194c55 1 70 41 70 98S169 2 115 4C84 4 66-9 55-30l1 105H24l-1-265h31l2 30c10-21 28-34 59-34zm-8 174c40 0 45-34 45-75s-6-73-45-74c-42 0-51 32-51 76 0 43 10 73 51 73" id="bz"/><path fill="#fff" d="M141-36C126-15 110 5 73 4 37 3 15-17 15-53c-1-64 63-63 125-63 3-35-9-54-41-54-24 1-41 7-42 31l-33-3c5-37 33-52 76-52 45 0 72 20 72 64v82c-1 20 7 32 28 27v20c-31 9-61-2-59-35zM48-53c0 20 12 33 32 33 41-3 63-29 60-74-43 2-92-5-92 41" id="bA"/><path fill="#fff" d="M177-190C167-65 218 103 67 71c-23-6-38-20-44-43l32-5c15 47 100 32 89-28v-30C133-14 115 1 83 1 29 1 15-40 15-95c0-56 16-97 71-98 29-1 48 16 59 35 1-10 0-23 2-32h30zM94-22c36 0 50-32 50-73 0-42-14-75-50-75-39 0-46 34-46 75s6 73 46 73" id="bB"/><g id="T"><use transform="matrix(0.04320987654320988,0,0,0.04320987654320988,0,0)" xlink:href="#bw"/><use transform="matrix(0.04320987654320988,0,0,0.04320987654320988,14.34567901234568,0)" xlink:href="#bx"/><use transform="matrix(0.04320987654320988,0,0,0.04320987654320988,22.987654320987655,0)" xlink:href="#by"/><use transform="matrix(0.04320987654320988,0,0,0.04320987654320988,31.629629629629633,0)" xlink:href="#bz"/><use transform="matrix(0.04320987654320988,0,0,0.04320987654320988,40.27160493827161,0)" xlink:href="#bA"/><use transform="matrix(0.04320987654320988,0,0,0.04320987654320988,48.91358024691358,0)" xlink:href="#bB"/><use transform="matrix(0.04320987654320988,0,0,0.04320987654320988,57.555555555555564,0)" xlink:href="#bx"/></g><path fill="#fff" d="M84 4C-5 8 30-112 23-190h32v120c0 31 7 50 39 49 72-2 45-101 50-169h31l1 190h-30c-1-10 1-25-2-33-11 22-28 36-60 37" id="bC"/><path fill="#fff" d="M135-143c-3-34-86-38-87 0 15 53 115 12 119 90S17 21 10-45l28-5c4 36 97 45 98 0-10-56-113-15-118-90-4-57 82-63 122-42 12 7 21 19 24 35" id="bD"/><path fill="#fff" d="M114-163C36-179 61-72 57 0H25l-1-190h30c1 12-1 29 2 39 6-27 23-49 58-41v29" id="bE"/><g id="U"><use transform="matrix(0.04320987654320988,0,0,0.04320987654320988,0,0)" xlink:href="#bC"/><use transform="matrix(0.04320987654320988,0,0,0.04320987654320988,8.641975308641976,0)" xlink:href="#bD"/><use transform="matrix(0.04320987654320988,0,0,0.04320987654320988,16.419753086419753,0)" xlink:href="#bx"/><use transform="matrix(0.04320987654320988,0,0,0.04320987654320988,25.061728395061728,0)" xlink:href="#bE"/></g><path fill="#fff" d="M59-47c-2 24 18 29 38 22v24C64 9 27 4 27-40v-127H5v-23h24l9-43h21v43h35v23H59v120" id="bF"/><path fill="#fff" d="M106-169C34-169 62-67 57 0H25v-261h32l-1 103c12-21 28-36 61-36 89 0 53 116 60 194h-32v-121c2-32-8-49-39-48" id="bG"/><path fill="#fff" d="M117-194c89-4 53 116 60 194h-32v-121c0-31-8-49-39-48C34-167 62-67 57 0H25l-1-190h30c1 10-1 24 2 32 11-22 29-35 61-36" id="bH"/><path fill="#fff" d="M24-231v-30h32v30H24zM24 0v-190h32V0H24" id="bI"/><path fill="#fff" d="M96-169c-40 0-48 33-48 73s9 75 48 75c24 0 41-14 43-38l32 2c-6 37-31 61-74 61-59 0-76-41-82-99-10-93 101-131 147-64 4 7 5 14 7 22l-32 3c-4-21-16-35-41-35" id="bJ"/><path fill="#fff" d="M100-194c62-1 85 37 85 99 1 63-27 99-86 99S16-35 15-95c0-66 28-99 85-99zM99-20c44 1 53-31 53-75 0-43-8-75-51-75s-53 32-53 75 10 74 51 75" id="bK"/><g id="V"><use transform="matrix(0.04320987654320988,0,0,0.04320987654320988,0,0)" xlink:href="#bA"/><use transform="matrix(0.04320987654320988,0,0,0.04320987654320988,8.641975308641976,0)" xlink:href="#bC"/><use transform="matrix(0.04320987654320988,0,0,0.04320987654320988,17.283950617283953,0)" xlink:href="#bF"/><use transform="matrix(0.04320987654320988,0,0,0.04320987654320988,21.60493827160494,0)" xlink:href="#bG"/><use transform="matrix(0.04320987654320988,0,0,0.04320987654320988,30.24691358024692,0)" xlink:href="#bx"/><use transform="matrix(0.04320987654320988,0,0,0.04320987654320988,38.88888888888889,0)" xlink:href="#bH"/><use transform="matrix(0.04320987654320988,0,0,0.04320987654320988,47.53086419753087,0)" xlink:href="#bF"/><use transform="matrix(0.04320987654320988,0,0,0.04320987654320988,51.851851851851855,0)" xlink:href="#bI"/><use transform="matrix(0.04320987654320988,0,0,0.04320987654320988,55.26543209876544,0)" xlink:href="#bJ"/><use transform="matrix(0.04320987654320988,0,0,0.04320987654320988,63.043209876543216,0)" xlink:href="#bA"/><use transform="matrix(0.04320987654320988,0,0,0.04320987654320988,71.68518518518519,0)" xlink:href="#bF"/><use transform="matrix(0.04320987654320988,0,0,0.04320987654320988,76.00617283950618,0)" xlink:href="#bI"/><use transform="matrix(0.04320987654320988,0,0,0.04320987654320988,79.41975308641976,0)" xlink:href="#bK"/><use transform="matrix(0.04320987654320988,0,0,0.04320987654320988,88.06172839506173,0)" xlink:href="#bH"/></g><path fill="#b2b2b2" d="M275 0h-61l-44-196L126 0H64L0-248h53L97-49l45-199h58l43 199 44-199h52" id="bL"/><path fill="#b2b2b2" d="M185-48c-13 30-37 53-82 52C43 2 14-33 14-96s30-98 90-98c62 0 83 45 84 108H66c0 31 8 55 39 56 18 0 30-7 34-22zm-45-69c5-46-57-63-70-21-2 6-4 13-4 21h74" id="bM"/><path fill="#b2b2b2" d="M135-194c52 0 70 43 70 98 0 56-19 99-73 100-30 1-46-15-58-35L72 0H24l1-261h50v104c11-23 29-37 60-37zM114-30c31 0 40-27 40-66 0-37-7-63-39-63s-41 28-41 65c0 36 8 64 40 64" id="bN"/><g id="W"><use transform="matrix(0.07407407407407408,0,0,0.07407407407407408,0,0)" xlink:href="#bL"/><use transform="matrix(0.07407407407407408,0,0,0.07407407407407408,24.592592592592595,0)" xlink:href="#bM"/><use transform="matrix(0.07407407407407408,0,0,0.07407407407407408,39.40740740740741,0)" xlink:href="#bN"/></g><path fill="#b2b2b2" d="M169-182c-1-43-94-46-97-3 18 66 151 10 154 114 3 95-165 93-204 36-6-8-10-19-12-30l50-8c3 46 112 56 116 5-17-69-150-10-154-114-4-87 153-88 188-35 5 8 8 18 10 28" id="bO"/><path fill="#b2b2b2" d="M84 4C32 4 15-41 15-95c0-55 18-99 73-99 29 0 47 12 58 34l2-30h48l-1 265h-49V-32C136-9 114 4 84 4zm21-34c32 0 41-29 41-66 0-36-9-64-40-64-33 0-39 30-40 65 0 43 13 65 39 65" id="bP"/><path fill="#b2b2b2" d="M85 4C-2 5 27-109 22-190h50c7 57-23 150 33 157 60-5 35-97 40-157h50l1 190h-47c-2-12 1-28-3-38-12 25-28 42-61 42" id="bQ"/><path fill="#b2b2b2" d="M135-194c87-1 58 113 63 194h-50c-7-57 23-157-34-157-59 0-34 97-39 157H25l-1-190h47c2 12-1 28 3 38 12-26 28-41 61-42" id="bR"/><path fill="#b2b2b2" d="M190-63c-7 42-38 67-86 67-59 0-84-38-90-98-12-110 154-137 174-36l-49 2c-2-19-15-32-35-32-30 0-35 28-38 64-6 74 65 87 74 30" id="bS"/><g id="X"><use transform="matrix(0.07407407407407408,0,0,0.07407407407407408,0,0)" xlink:href="#bO"/><use transform="matrix(0.07407407407407408,0,0,0.07407407407407408,17.77777777777778,0)" xlink:href="#bM"/><use transform="matrix(0.07407407407407408,0,0,0.07407407407407408,32.592592592592595,0)" xlink:href="#bP"/><use transform="matrix(0.07407407407407408,0,0,0.07407407407407408,48.814814814814824,0)" xlink:href="#bQ"/><use transform="matrix(0.07407407407407408,0,0,0.07407407407407408,65.03703703703705,0)" xlink:href="#bM"/><use transform="matrix(0.07407407407407408,0,0,0.07407407407407408,79.85185185185188,0)" xlink:href="#bR"/><use transform="matrix(0.07407407407407408,0,0,0.07407407407407408,96.0740740740741,0)" xlink:href="#bS"/><use transform="matrix(0.07407407407407408,0,0,0.07407407407407408,110.88888888888891,0)" xlink:href="#bM"/></g><path fill="#b2b2b2" d="M24-248c120-7 223 5 221 122C244-46 201 0 124 0H24v-248zM76-40c74 7 117-18 117-86 0-67-45-88-117-82v168" id="bT"/><path fill="#b2b2b2" d="M25-224v-37h50v37H25zM25 0v-190h50V0H25" id="bU"/><path fill="#b2b2b2" d="M133-34C117-15 103 5 69 4 32 3 11-16 11-54c-1-60 55-63 116-61 1-26-3-47-28-47-18 1-26 9-28 27l-52-2c7-38 36-58 82-57s74 22 75 68l1 82c-1 14 12 18 25 15v27c-30 8-71 5-69-32zm-48 3c29 0 43-24 42-57-32 0-66-3-65 30 0 17 8 27 23 27" id="bV"/><path fill="#b2b2b2" d="M195-6C206 82 75 100 31 46c-4-6-6-13-8-21l49-6c3 16 16 24 34 25 40 0 42-37 40-79-11 22-30 35-61 35-53 0-70-43-70-97 0-56 18-96 73-97 30 0 46 14 59 34l2-30h47zm-90-29c32 0 41-27 41-63 0-35-9-62-40-62-32 0-39 29-40 63 0 36 9 62 39 62" id="bW"/><path fill="#b2b2b2" d="M135-150c-39-12-60 13-60 57V0H25l-1-190h47c2 13-1 29 3 40 6-28 27-53 61-41v41" id="bX"/><path fill="#b2b2b2" d="M220-157c-53 9-28 100-34 157h-49v-107c1-27-5-49-29-50C55-147 81-57 75 0H25l-1-190h47c2 12-1 28 3 38 10-53 101-56 108 0 13-22 24-43 59-42 82 1 51 116 57 194h-49v-107c-1-25-5-48-29-50" id="bY"/><g id="Y"><use transform="matrix(0.07407407407407408,0,0,0.07407407407407408,0,0)" xlink:href="#bT"/><use transform="matrix(0.07407407407407408,0,0,0.07407407407407408,19.185185185185187,0)" xlink:href="#bU"/><use transform="matrix(0.07407407407407408,0,0,0.07407407407407408,26.592592592592595,0)" xlink:href="#bV"/><use transform="matrix(0.07407407407407408,0,0,0.07407407407407408,41.40740740740741,0)" xlink:href="#bW"/><use transform="matrix(0.07407407407407408,0,0,0.07407407407407408,57.62962962962964,0)" xlink:href="#bX"/><use transform="matrix(0.07407407407407408,0,0,0.07407407407407408,68,0)" xlink:href="#bV"/><use transform="matrix(0.07407407407407408,0,0,0.07407407407407408,82.81481481481481,0)" xlink:href="#bY"/></g><path fill="#b2b2b2" d="M233-177c-1 41-23 64-60 70L243 0h-38l-65-103H63V0H30v-248c88 3 205-21 203 71zM63-129c60-2 137 13 137-47 0-61-80-42-137-45v92" id="bZ"/><path fill="#b2b2b2" d="M141-36C126-15 110 5 73 4 37 3 15-17 15-53c-1-64 63-63 125-63 3-35-9-54-41-54-24 1-41 7-42 31l-33-3c5-37 33-52 76-52 45 0 72 20 72 64v82c-1 20 7 32 28 27v20c-31 9-61-2-59-35zM48-53c0 20 12 33 32 33 41-3 63-29 60-74-43 2-92-5-92 41" id="ca"/><path fill="#b2b2b2" d="M96-169c-40 0-48 33-48 73s9 75 48 75c24 0 41-14 43-38l32 2c-6 37-31 61-74 61-59 0-76-41-82-99-10-93 101-131 147-64 4 7 5 14 7 22l-32 3c-4-21-16-35-41-35" id="cb"/><path fill="#b2b2b2" d="M24-231v-30h32v30H24zM24 0v-190h32V0H24" id="cc"/><path fill="#b2b2b2" d="M117-194c89-4 53 116 60 194h-32v-121c0-31-8-49-39-48C34-167 62-67 57 0H25l-1-190h30c1 10-1 24 2 32 11-22 29-35 61-36" id="cd"/><path fill="#b2b2b2" d="M100-194c63 0 86 42 84 106H49c0 40 14 67 53 68 26 1 43-12 49-29l28 8c-11 28-37 45-77 45C44 4 14-33 15-96c1-61 26-98 85-98zm52 81c6-60-76-77-97-28-3 7-6 17-6 28h103" id="ce"/><g id="Z"><use transform="matrix(0.04320987654320988,0,0,0.04320987654320988,0,0)" xlink:href="#bZ"/><use transform="matrix(0.04320987654320988,0,0,0.04320987654320988,11.19135802469136,0)" xlink:href="#ca"/><use transform="matrix(0.04320987654320988,0,0,0.04320987654320988,19.833333333333336,0)" xlink:href="#cb"/><use transform="matrix(0.04320987654320988,0,0,0.04320987654320988,27.611111111111114,0)" xlink:href="#cc"/><use transform="matrix(0.04320987654320988,0,0,0.04320987654320988,31.024691358024693,0)" xlink:href="#cd"/><use transform="matrix(0.04320987654320988,0,0,0.04320987654320988,39.66666666666667,0)" xlink:href="#ce"/></g><path fill="#b2b2b2" d="M30 0v-248h187v28H63v79h144v27H63v87h162V0H30" id="cf"/><path fill="#b2b2b2" d="M135-143c-3-34-86-38-87 0 15 53 115 12 119 90S17 21 10-45l28-5c4 36 97 45 98 0-10-56-113-15-118-90-4-57 82-63 122-42 12 7 21 19 24 35" id="cg"/><g id="aa"><use transform="matrix(0.04320987654320988,0,0,0.04320987654320988,0,0)" xlink:href="#cf"/><use transform="matrix(0.04320987654320988,0,0,0.04320987654320988,10.370370370370372,0)" xlink:href="#cd"/><use transform="matrix(0.04320987654320988,0,0,0.04320987654320988,19.01234567901235,0)" xlink:href="#cd"/><use transform="matrix(0.04320987654320988,0,0,0.04320987654320988,27.654320987654323,0)" xlink:href="#cc"/><use transform="matrix(0.04320987654320988,0,0,0.04320987654320988,31.067901234567906,0)" xlink:href="#cg"/></g><path fill="#b2b2b2" d="M32 76v-337h29V76H32" id="ch"/><use transform="matrix(0.04320987654320988,0,0,0.04320987654320988,0,0)" xlink:href="#ch" id="ab"/><path fill="#b2b2b2" d="M153-248C145-148 188 4 80 4 36 3 13-21 6-62l32-5c4 25 16 42 43 43 27 0 39-20 39-49v-147H72v-28h81" id="ci"/><path fill="#b2b2b2" d="M84 4C-5 8 30-112 23-190h32v120c0 31 7 50 39 49 72-2 45-101 50-169h31l1 190h-30c-1-10 1-25-2-33-11 22-28 36-60 37" id="cj"/><path fill="#b2b2b2" d="M24 0v-261h32V0H24" id="ck"/><path fill="#b2b2b2" d="M179-190L93 31C79 59 56 82 12 73V49c39 6 53-20 64-50L1-190h34L92-34l54-156h33" id="cl"/><g id="ac"><use transform="matrix(0.04320987654320988,0,0,0.04320987654320988,0,0)" xlink:href="#ci"/><use transform="matrix(0.04320987654320988,0,0,0.04320987654320988,7.777777777777779,0)" xlink:href="#cj"/><use transform="matrix(0.04320987654320988,0,0,0.04320987654320988,16.419753086419753,0)" xlink:href="#ck"/><use transform="matrix(0.04320987654320988,0,0,0.04320987654320988,19.833333333333336,0)" xlink:href="#cl"/></g><path fill="#b2b2b2" d="M126-127c33 6 58 20 58 59 0 88-139 92-164 29-3-8-5-16-6-25l32-3c6 27 21 44 54 44 32 0 52-15 52-46 0-38-36-46-79-43v-28c39 1 72-4 72-42 0-27-17-43-46-43-28 0-47 15-49 41l-32-3c6-42 35-63 81-64 48-1 79 21 79 65 0 36-21 52-52 59" id="cm"/><path fill="#b2b2b2" d="M68-38c1 34 0 65-14 84H32c9-13 17-26 17-46H33v-38h35" id="cn"/><g id="ad"><use transform="matrix(0.04320987654320988,0,0,0.04320987654320988,0,0)" xlink:href="#cm"/><use transform="matrix(0.04320987654320988,0,0,0.04320987654320988,8.641975308641976,0)" xlink:href="#cn"/></g><path fill="#b2b2b2" d="M101-251c82-7 93 87 43 132L82-64C71-53 59-42 53-27h129V0H18c2-99 128-94 128-182 0-28-16-43-45-43s-46 15-49 41l-32-3c6-41 34-60 81-64" id="co"/><path fill="#b2b2b2" d="M101-251c68 0 85 55 85 127S166 4 100 4C33 4 14-52 14-124c0-73 17-127 87-127zm-1 229c47 0 54-49 54-102s-4-102-53-102c-51 0-55 48-55 102 0 53 5 102 54 102" id="cp"/><path fill="#b2b2b2" d="M27 0v-27h64v-190l-56 39v-29l58-41h29v221h61V0H27" id="cq"/><path fill="#b2b2b2" d="M99-251c64 0 84 50 84 122C183-37 130 33 47-8c-14-7-20-23-25-40l30-5c6 39 69 39 84 7 9-19 16-44 16-74-10 22-31 35-62 35-49 0-73-33-73-83 0-54 28-83 82-83zm-1 141c31-1 51-18 51-49 0-36-14-67-51-67-34 0-49 23-49 58 0 34 15 58 49 58" id="cr"/><g id="ae"><use transform="matrix(0.04320987654320988,0,0,0.04320987654320988,0,0)" xlink:href="#co"/><use transform="matrix(0.04320987654320988,0,0,0.04320987654320988,8.641975308641976,0)" xlink:href="#cp"/><use transform="matrix(0.04320987654320988,0,0,0.04320987654320988,17.283950617283953,0)" xlink:href="#cq"/><use transform="matrix(0.04320987654320988,0,0,0.04320987654320988,25.925925925925927,0)" xlink:href="#cr"/></g><path fill="#3d4752" d="M101-234c-31-9-42 10-38 44h38v23H63V0H32v-167H5v-23h27c-7-52 17-82 69-68v24" id="cs"/><g id="ag"><use transform="matrix(0.04320987654320988,0,0,0.04320987654320988,0,0)" xlink:href="#bk"/><use transform="matrix(0.04320987654320988,0,0,0.04320987654320988,7.777777777777779,0)" xlink:href="#aM"/><use transform="matrix(0.04320987654320988,0,0,0.04320987654320988,16.419753086419753,0)" xlink:href="#aT"/><use transform="matrix(0.04320987654320988,0,0,0.04320987654320988,21.561728395061728,0)" xlink:href="#bc"/><use transform="matrix(0.04320987654320988,0,0,0.04320987654320988,24.97530864197531,0)" xlink:href="#cs"/><use transform="matrix(0.04320987654320988,0,0,0.04320987654320988,29.296296296296298,0)" xlink:href="#bq"/></g><g id="ah"><use transform="matrix(0.04320987654320988,0,0,0.04320987654320988,0,0)" xlink:href="#aW"/><use transform="matrix(0.04320987654320988,0,0,0.04320987654320988,8.641975308641976,0)" xlink:href="#aU"/><use transform="matrix(0.04320987654320988,0,0,0.04320987654320988,16.419753086419753,0)" xlink:href="#aM"/><use transform="matrix(0.04320987654320988,0,0,0.04320987654320988,25.061728395061728,0)" xlink:href="#aT"/></g></defs></g></svg>