<svg xmlns="http://www.w3.org/2000/svg" xmlns:xlink="http://www.w3.org/1999/xlink" xmlns:lucid="lucid" width="560.95" height="531"><g transform="translate(-220 -50)" lucid:page-tab-id="0_0"><path d="M240 75c0-2.76 2.24-5 5-5h150c2.76 0 5 2.24 5 5v60c0 2.76-2.24 5-5 5H245c-2.76 0-5-2.24-5-5z" stroke="#000" stroke-opacity="0" fill="#abddf3"/><use xlink:href="#a" transform="matrix(1,0,0,1,240,70) translate(57.28 40.2625)"/><path d="M503.25 75c0-2.76 2.24-5 5-5h150c2.76 0 5 2.24 5 5v60c0 2.76-2.24 5-5 5h-150c-2.76 0-5-2.24-5-5z" stroke="#000" stroke-opacity="0" fill="#abddf3"/><use xlink:href="#b" transform="matrix(1,0,0,1,503.25,70) translate(55.723000000000006 40.2625)"/><path d="M300 195c0-2.76 2.24-5 5-5h30c2.76 0 5 2.24 5 5v70c0 2.76-2.24 5-5 5h-30c-2.76 0-5-2.24-5-5z" stroke="#000" stroke-opacity="0" fill="#d6d6d6"/><path d="M320 140v30.76" stroke="#3d4752" stroke-width="2" fill="none"/><path fill="#3d4752"/><path d="M320 185.76l-4.64-14.26h9.28z" stroke="#3d4752" stroke-width="2" fill="#3d4752"/><path d="M563 195c0-2.76 2.24-5 5-5h30c2.76 0 5 2.24 5 5v310c0 2.76-2.24 5-5 5h-30c-2.76 0-5-2.24-5-5z" stroke="#000" stroke-opacity="0" fill="#d6d6d6"/><path d="M583.25 140v30.76" stroke="#3d4752" stroke-width="2" fill="none"/><path fill="#3d4752"/><path d="M583.25 185.76l-4.64-14.26h9.3z" stroke="#3d4752" stroke-width="2" fill="#3d4752"/><path d="M340 205.7h100.63c.45 0 .8.38.8.82 0 .45.37.8.82.8h100.63" stroke="#3d4752" stroke-width="2" fill="none"/><path fill="#3d4752"/><path d="M524.3 196.64l18.07 10.7" stroke="#3d4752" stroke-width="2" fill="none"/><use xlink:href="#c" transform="matrix(1,0,0,1,377.1966477332003,180.11718212275883) translate(0 14.4)"/><use xlink:href="#d" transform="matrix(1,0,0,1,377.1966477332003,180.11718212275883) translate(53.6 14.4)"/><path d="M603 213.33h142c2.76 0 5 2.24 5 5v23.34c0 2.76-2.24 5-5 5H621.24" stroke="#3d4752" stroke-width="2" fill="none"/><path fill="#3d4752"/><path d="M620.5 251.3l-14.26-4.63 14.26-4.64z" fill="#3d4752"/><path d="M621.5 252.68l-18.5-6 18.5-6.03zm-12.03-6l10.03 3.25v-6.52z" fill="#3d4752"/><use xlink:href="#e" transform="matrix(1,0,0,1,603.5781638892313,187.73333333333332) translate(0 14.4)"/><use xlink:href="#f" transform="matrix(1,0,0,1,603.5781638892313,187.73333333333332) translate(64 14.4)"/><use xlink:href="#g" transform="matrix(1,0,0,1,603.5781638892313,187.73333333333332) translate(129.9 14.4)"/><path d="M320 270v300" fill="none"/><path d="M320 270v3.95m0 7.9v7.9m0 7.88v7.9m0 7.9v7.9m0 7.88v7.9m0 7.9v7.9m0 7.9v7.88m0 7.9v7.9m0 7.9v7.88m0 7.9v7.9m0 7.9v7.88m0 7.9v7.9m0 7.9v7.88m0 7.9v7.9m0 7.9V495m0 7.9v7.9m0 7.88v7.9m0 7.9v7.9m0 7.88v7.9m0 7.9V570" stroke="#3d4752" stroke-width="2" fill="none"/><path fill="#3d4752"/><path d="M563 330.48H451.74c-.13 0-.24.1-.24.23 0 .15-.1.25-.24.25h-109.3" stroke="#3d4752" stroke-width="2" fill="none"/><path fill="#3d4752"/><path d="M360.55 321.12l-16.62 9.83 16.62 9.83-1.02 1.72L340 330.95l19.53-11.55z" fill="#3d4752"/><use xlink:href="#h" transform="matrix(1,0,0,1,410.7352048845488,304.87805097659367) translate(0 14.4)"/><use xlink:href="#i" transform="matrix(1,0,0,1,410.7352048845488,304.87805097659367) translate(51.5 14.4)"/><path d="M340 377.62h111.26c.13 0 .24-.1.24-.24 0-.13.1-.24.24-.24h109.3" fill="none"/><path d="M340 377.62h3.97m7.95 0h7.95m7.95 0h7.94m7.95 0h7.96m7.94 0h7.95m7.95 0h7.95m7.94 0h7.94m7.95 0h3.96l.17-.07.07-.17.07-.17.17-.06h3.9m7.8 0h7.82m7.8 0h7.8m7.82 0h7.8m7.8 0h7.82m7.8 0h7.8m7.82 0h7.8m7.8 0h3.92" stroke="#3d4752" stroke-width="2" fill="none"/><path fill="#3d4752"/><path d="M563 377.14l-19.53 11.55-1.02-1.73 16.62-9.83-16.62-9.83 1.02-1.7z" fill="#3d4752"/><use xlink:href="#j" transform="matrix(1,0,0,1,388.3148030314508,351.5437354160639) translate(0 14.4)"/><use xlink:href="#k" transform="matrix(1,0,0,1,388.3148030314508,351.5437354160639) translate(40.550000000000004 14.4)"/><use xlink:href="#l" transform="matrix(1,0,0,1,388.3148030314508,351.5437354160639) translate(74.4 14.4)"/><path d="M300 325c0-2.76 2.24-5 5-5h30c2.76 0 5 2.24 5 5v70c0 2.76-2.24 5-5 5h-30c-2.76 0-5-2.24-5-5z" stroke="#000" stroke-opacity="0" fill="#d6d6d6"/><path d="M583 510v60" fill="none"/><path d="M583 510v3.75m0 7.5v7.5m0 7.5v7.5m0 7.5v7.5m0 7.5V570" stroke="#3d4752" stroke-width="2" fill="none"/><path fill="#3d4752"/><path d="M603 413.33h35c2.76 0 5 2.24 5 5v21.34c0 2.76-2.24 5-5 5h-33.04" stroke="#3d4752" stroke-width="2" fill="none"/><path fill="#3d4752"/><path d="M622.7 435.35l-15.77 9.32L622.7 454l-1.03 1.7L603 444.68l18.67-11.04z" fill="#3d4752"/><use xlink:href="#m" transform="matrix(1,0,0,1,650.9999999999999,418.2) translate(0 14.4)"/><use xlink:href="#n" transform="matrix(1,0,0,1,650.9999999999999,418.2) translate(67 14.4)"/><path d="M563 447.33H358.1" stroke="#000" stroke-width="2" fill="none"/><path/><path d="M357.38 451.97l-14.27-4.64 14.28-4.63z"/><path d="M358.38 453.35l-18.5-6.02 18.5-6zm-12.03-6.02l10.03 3.26v-6.53z"/><g><use xlink:href="#o" transform="matrix(1,0,0,1,410.68750000000006,451.33333333333337) translate(0 14.4)"/><use xlink:href="#p" transform="matrix(1,0,0,1,410.68750000000006,451.33333333333337) translate(51.5 14.4)"/></g><path d="M299.88 435c0-2.76 2.23-5 5-5h30c2.76 0 5 2.24 5 5v70c0 2.76-2.24 5-5 5h-30c-2.77 0-5-2.24-5-5z" stroke="#000" stroke-opacity="0" fill="#d6d6d6"/><defs><path fill="#3d4752" d="M378-62c56 2 101-12 135-32l20 65C494 2 428 12 359 12 150 12 58-132 56-350c-2-250 141-394 402-356 25 4 47 11 65 18l-20 73c-32-15-78-23-137-23-158 0-222 119-222 288S215-68 378-62" id="q"/><path fill="#3d4752" d="M189 12C123 10 86-25 86-100v-600h80v577c-10 72 59 74 108 54l9 63c-18 10-66 18-94 18" id="r"/><path fill="#3d4752" d="M94-500h80V0H94v-500zm38-99c-31 0-55-23-55-53s24-56 55-56 58 26 58 56-28 53-58 53" id="s"/><path fill="#3d4752" d="M293-58c43 0 98-19 119-40l30 58C404-9 338 12 270 12 112 10 51-92 49-250c-1-159 70-258 220-262 155-4 211 110 184 270H132c0 116 45 184 161 184zm88-247c1-92-30-137-111-137-89 0-129 46-137 137h248" id="t"/><path fill="#3d4752" d="M313-512c130 0 165 79 165 210V0h-80v-285c-2-94-16-155-105-157-72-1-118 46-136 100V0H77v-500h56l15 61h4c32-42 86-73 161-73" id="u"/><path fill="#3d4752" d="M200 12C109 10 89-39 89-138v-292H11v-70h78v-99l80-23v122h136v70H169v277c1 59 6 93 57 95 38 1 55-9 84-20l18 61c-35 17-77 30-128 29" id="v"/><g id="a"><use transform="matrix(0.018,0,0,0.018,0,0)" xlink:href="#q"/><use transform="matrix(0.018,0,0,0.018,10.277999999999999,0)" xlink:href="#r"/><use transform="matrix(0.018,0,0,0.018,15.533999999999999,0)" xlink:href="#s"/><use transform="matrix(0.018,0,0,0.018,20.357999999999997,0)" xlink:href="#t"/><use transform="matrix(0.018,0,0,0.018,29.501999999999995,0)" xlink:href="#u"/><use transform="matrix(0.018,0,0,0.018,39.348,0)" xlink:href="#v"/><path fill="#3d4752" d="M-.9.9h47.25v.9H-.9z"/></g><path fill="#3d4752" d="M74-100c89 50 337 72 327-78-8-132-168-134-251-198-46-36-87-77-87-158 0-190 253-210 408-146l-25 73c-38-17-105-31-168-31-104 0-173 93-107 164 94 102 313 99 313 289C484-48 386 9 246 12 162 13 95-2 46-25" id="w"/><path fill="#3d4752" d="M152-439c26-60 97-88 178-61l-17 77c-74-29-156 5-156 73V0H77v-500h56l15 61h4" id="x"/><path fill="#3d4752" d="M101-500c50 129 110 248 149 388 32-143 91-259 137-388h86L260 11h-34L9-500h92" id="y"/><g id="b"><use transform="matrix(0.018,0,0,0.018,0,0)" xlink:href="#w"/><use transform="matrix(0.018,0,0,0.018,9.558,0)" xlink:href="#t"/><use transform="matrix(0.018,0,0,0.018,18.701999999999998,0)" xlink:href="#x"/><use transform="matrix(0.018,0,0,0.018,24.821999999999996,0)" xlink:href="#y"/><use transform="matrix(0.018,0,0,0.018,33.3,0)" xlink:href="#t"/><use transform="matrix(0.018,0,0,0.018,42.443999999999996,0)" xlink:href="#x"/><path fill="#3d4752" d="M-.9.9h50.36v.9H-.9z"/></g><path fill="#3d4752" d="M30-248c87 1 191-15 191 75 0 78-77 80-158 76V0H30v-248zm33 125c57 0 124 11 124-50 0-59-68-47-124-48v98" id="z"/><path fill="#3d4752" d="M140-251c81 0 123 46 123 126C263-46 219 4 140 4 59 4 17-45 17-125s42-126 123-126zm0 227c63 0 89-41 89-101s-29-99-89-99c-61 0-89 39-89 99S79-25 140-24" id="A"/><path fill="#3d4752" d="M185-189c-5-48-123-54-124 2 14 75 158 14 163 119 3 78-121 87-175 55-17-10-28-26-33-46l33-7c5 56 141 63 141-1 0-78-155-14-162-118-5-82 145-84 179-34 5 7 8 16 11 25" id="B"/><path fill="#3d4752" d="M127-220V0H93v-220H8v-28h204v28h-85" id="C"/><g id="c"><use transform="matrix(0.05,0,0,0.05,0,0)" xlink:href="#z"/><use transform="matrix(0.05,0,0,0.05,12,0)" xlink:href="#A"/><use transform="matrix(0.05,0,0,0.05,26,0)" xlink:href="#B"/><use transform="matrix(0.05,0,0,0.05,38,0)" xlink:href="#C"/></g><path fill="#3d4752" d="M240 0l2-218c-23 76-54 145-80 218h-23L58-218 59 0H30v-248h44l77 211c21-75 51-140 76-211h43V0h-30" id="D"/><path fill="#3d4752" d="M100-194c63 0 86 42 84 106H49c0 40 14 67 53 68 26 1 43-12 49-29l28 8c-11 28-37 45-77 45C44 4 14-33 15-96c1-61 26-98 85-98zm52 81c6-60-76-77-97-28-3 7-6 17-6 28h103" id="E"/><path fill="#3d4752" d="M59-47c-2 24 18 29 38 22v24C64 9 27 4 27-40v-127H5v-23h24l9-43h21v43h35v23H59v120" id="F"/><path fill="#3d4752" d="M141-36C126-15 110 5 73 4 37 3 15-17 15-53c-1-64 63-63 125-63 3-35-9-54-41-54-24 1-41 7-42 31l-33-3c5-37 33-52 76-52 45 0 72 20 72 64v82c-1 20 7 32 28 27v20c-31 9-61-2-59-35zM48-53c0 20 12 33 32 33 41-3 63-29 60-74-43 2-92-5-92 41" id="G"/><path fill="#3d4752" d="M85-194c31 0 48 13 60 33l-1-100h32l1 261h-30c-2-10 0-23-3-31C134-8 116 4 85 4 32 4 16-35 15-94c0-66 23-100 70-100zm9 24c-40 0-46 34-46 75 0 40 6 74 45 74 42 0 51-32 51-76 0-42-9-74-50-73" id="H"/><g id="d"><use transform="matrix(0.05,0,0,0.05,0,0)" xlink:href="#D"/><use transform="matrix(0.05,0,0,0.05,14.950000000000001,0)" xlink:href="#E"/><use transform="matrix(0.05,0,0,0.05,24.950000000000003,0)" xlink:href="#F"/><use transform="matrix(0.05,0,0,0.05,29.950000000000003,0)" xlink:href="#G"/><use transform="matrix(0.05,0,0,0.05,39.95,0)" xlink:href="#H"/><use transform="matrix(0.05,0,0,0.05,49.95,0)" xlink:href="#G"/><use transform="matrix(0.05,0,0,0.05,59.95,0)" xlink:href="#F"/><use transform="matrix(0.05,0,0,0.05,64.95,0)" xlink:href="#G"/></g><path fill="#3d4752" d="M30 0v-248h33v221h125V0H30" id="I"/><path fill="#3d4752" d="M100-194c62-1 85 37 85 99 1 63-27 99-86 99S16-35 15-95c0-66 28-99 85-99zM99-20c44 1 53-31 53-75 0-43-8-75-51-75s-53 32-53 75 10 74 51 75" id="J"/><path fill="#3d4752" d="M143 0L79-87 56-68V0H24v-261h32v163l83-92h37l-77 82L181 0h-38" id="K"/><path fill="#3d4752" d="M84 4C-5 8 30-112 23-190h32v120c0 31 7 50 39 49 72-2 45-101 50-169h31l1 190h-30c-1-10 1-25-2-33-11 22-28 36-60 37" id="L"/><path fill="#3d4752" d="M115-194c55 1 70 41 70 98S169 2 115 4C84 4 66-9 55-30l1 105H24l-1-265h31l2 30c10-21 28-34 59-34zm-8 174c40 0 45-34 45-75s-6-73-45-74c-42 0-51 32-51 76 0 43 10 73 51 73" id="M"/><g id="e"><use transform="matrix(0.05,0,0,0.05,0,0)" xlink:href="#I"/><use transform="matrix(0.05,0,0,0.05,10,0)" xlink:href="#J"/><use transform="matrix(0.05,0,0,0.05,20,0)" xlink:href="#J"/><use transform="matrix(0.05,0,0,0.05,30,0)" xlink:href="#K"/><use transform="matrix(0.05,0,0,0.05,39,0)" xlink:href="#L"/><use transform="matrix(0.05,0,0,0.05,49,0)" xlink:href="#M"/></g><path fill="#3d4752" d="M141 0L90-78 38 0H4l68-98-65-92h35l48 74 47-74h35l-64 92 68 98h-35" id="N"/><path fill="#3d4752" d="M24-231v-30h32v30H24zM24 0v-190h32V0H24" id="O"/><path fill="#3d4752" d="M135-143c-3-34-86-38-87 0 15 53 115 12 119 90S17 21 10-45l28-5c4 36 97 45 98 0-10-56-113-15-118-90-4-57 82-63 122-42 12 7 21 19 24 35" id="P"/><path fill="#3d4752" d="M117-194c89-4 53 116 60 194h-32v-121c0-31-8-49-39-48C34-167 62-67 57 0H25l-1-190h30c1 10-1 24 2 32 11-22 29-35 61-36" id="Q"/><path fill="#3d4752" d="M177-190C167-65 218 103 67 71c-23-6-38-20-44-43l32-5c15 47 100 32 89-28v-30C133-14 115 1 83 1 29 1 15-40 15-95c0-56 16-97 71-98 29-1 48 16 59 35 1-10 0-23 2-32h30zM94-22c36 0 50-32 50-73 0-42-14-75-50-75-39 0-46 34-46 75s6 73 46 73" id="R"/><g id="f"><use transform="matrix(0.05,0,0,0.05,0,0)" xlink:href="#E"/><use transform="matrix(0.05,0,0,0.05,10,0)" xlink:href="#N"/><use transform="matrix(0.05,0,0,0.05,19,0)" xlink:href="#O"/><use transform="matrix(0.05,0,0,0.05,22.95,0)" xlink:href="#P"/><use transform="matrix(0.05,0,0,0.05,31.950000000000003,0)" xlink:href="#F"/><use transform="matrix(0.05,0,0,0.05,36.95,0)" xlink:href="#O"/><use transform="matrix(0.05,0,0,0.05,40.900000000000006,0)" xlink:href="#Q"/><use transform="matrix(0.05,0,0,0.05,50.900000000000006,0)" xlink:href="#R"/></g><path fill="#3d4752" d="M101-234c-31-9-42 10-38 44h38v23H63V0H32v-167H5v-23h27c-7-52 17-82 69-68v24" id="S"/><path fill="#3d4752" d="M24 0v-261h32V0H24" id="T"/><g id="g"><use transform="matrix(0.05,0,0,0.05,0,0)" xlink:href="#S"/><use transform="matrix(0.05,0,0,0.05,5,0)" xlink:href="#O"/><use transform="matrix(0.05,0,0,0.05,8.95,0)" xlink:href="#T"/><use transform="matrix(0.05,0,0,0.05,12.899999999999999,0)" xlink:href="#E"/></g><path fill="#3d4752" d="M197 0v-115H63V0H30v-248h33v105h134v-105h34V0h-34" id="U"/><g id="h"><use transform="matrix(0.05,0,0,0.05,0,0)" xlink:href="#U"/><use transform="matrix(0.05,0,0,0.05,12.950000000000001,0)" xlink:href="#C"/><use transform="matrix(0.05,0,0,0.05,23.900000000000002,0)" xlink:href="#C"/><use transform="matrix(0.05,0,0,0.05,34.85,0)" xlink:href="#z"/></g><path fill="#3d4752" d="M126-127c33 6 58 20 58 59 0 88-139 92-164 29-3-8-5-16-6-25l32-3c6 27 21 44 54 44 32 0 52-15 52-46 0-38-36-46-79-43v-28c39 1 72-4 72-42 0-27-17-43-46-43-28 0-47 15-49 41l-32-3c6-42 35-63 81-64 48-1 79 21 79 65 0 36-21 52-52 59" id="V"/><path fill="#3d4752" d="M101-251c68 0 85 55 85 127S166 4 100 4C33 4 14-52 14-124c0-73 17-127 87-127zm-1 229c47 0 54-49 54-102s-4-102-53-102c-51 0-55 48-55 102 0 53 5 102 54 102" id="W"/><path fill="#3d4752" d="M134-131c28 9 52 24 51 62-1 50-34 73-85 73S17-19 16-69c0-36 21-54 49-61-75-25-45-126 34-121 46 3 78 18 79 63 0 33-17 51-44 57zm-34-11c31 1 46-15 46-44 0-28-17-43-47-42-29 0-46 13-45 42 1 28 16 44 46 44zm1 122c35 0 51-18 51-52 0-30-18-46-53-46-33 0-51 17-51 47 0 34 19 51 53 51" id="X"/><g id="i"><use transform="matrix(0.05,0,0,0.05,0,0)" xlink:href="#V"/><use transform="matrix(0.05,0,0,0.05,10,0)" xlink:href="#W"/><use transform="matrix(0.05,0,0,0.05,20,0)" xlink:href="#X"/></g><path fill="#3d4752" d="M232-93c-1 65-40 97-104 97C67 4 28-28 28-90v-158h33c8 89-33 224 67 224 102 0 64-133 71-224h33v155" id="Y"/><g id="j"><use transform="matrix(0.05,0,0,0.05,0,0)" xlink:href="#z"/><use transform="matrix(0.05,0,0,0.05,12,0)" xlink:href="#Y"/><use transform="matrix(0.05,0,0,0.05,24.950000000000003,0)" xlink:href="#C"/></g><path fill="#3d4752" d="M63-220v92h138v28H63V0H30v-248h175v28H63" id="Z"/><g id="k"><use transform="matrix(0.05,0,0,0.05,0,0)" xlink:href="#Z"/><use transform="matrix(0.05,0,0,0.05,10.950000000000001,0)" xlink:href="#O"/><use transform="matrix(0.05,0,0,0.05,14.9,0)" xlink:href="#T"/><use transform="matrix(0.05,0,0,0.05,18.85,0)" xlink:href="#E"/></g><path fill="#3d4752" d="M212-179c-10-28-35-45-73-45-59 0-87 40-87 99 0 60 29 101 89 101 43 0 62-24 78-52l27 14C228-24 195 4 139 4 59 4 22-46 18-125c-6-104 99-153 187-111 19 9 31 26 39 46" id="aa"/><path fill="#3d4752" d="M106-169C34-169 62-67 57 0H25v-261h32l-1 103c12-21 28-36 61-36 89 0 53 116 60 194h-32v-121c2-32-8-49-39-48" id="ab"/><g id="l"><use transform="matrix(0.05,0,0,0.05,0,0)" xlink:href="#aa"/><use transform="matrix(0.05,0,0,0.05,12.950000000000001,0)" xlink:href="#ab"/><use transform="matrix(0.05,0,0,0.05,22.950000000000003,0)" xlink:href="#L"/><use transform="matrix(0.05,0,0,0.05,32.95,0)" xlink:href="#Q"/><use transform="matrix(0.05,0,0,0.05,42.95,0)" xlink:href="#K"/></g><path fill="#3d4752" d="M205 0l-28-72H64L36 0H1l101-248h38L239 0h-34zm-38-99l-47-123c-12 45-31 82-46 123h93" id="ac"/><g id="m"><use transform="matrix(0.05,0,0,0.05,0,0)" xlink:href="#ac"/><use transform="matrix(0.05,0,0,0.05,12,0)" xlink:href="#M"/><use transform="matrix(0.05,0,0,0.05,22,0)" xlink:href="#M"/><use transform="matrix(0.05,0,0,0.05,32,0)" xlink:href="#E"/><use transform="matrix(0.05,0,0,0.05,42,0)" xlink:href="#Q"/><use transform="matrix(0.05,0,0,0.05,52,0)" xlink:href="#H"/></g><g id="n"><use transform="matrix(0.05,0,0,0.05,0,0)" xlink:href="#aa"/><use transform="matrix(0.05,0,0,0.05,12.950000000000001,0)" xlink:href="#ab"/><use transform="matrix(0.05,0,0,0.05,22.950000000000003,0)" xlink:href="#L"/><use transform="matrix(0.05,0,0,0.05,32.95,0)" xlink:href="#Q"/><use transform="matrix(0.05,0,0,0.05,42.95,0)" xlink:href="#K"/></g><path d="M197 0v-115H63V0H30v-248h33v105h134v-105h34V0h-34" id="ad"/><path d="M127-220V0H93v-220H8v-28h204v28h-85" id="ae"/><path d="M30-248c87 1 191-15 191 75 0 78-77 80-158 76V0H30v-248zm33 125c57 0 124 11 124-50 0-59-68-47-124-48v98" id="af"/><g id="o"><use transform="matrix(0.05,0,0,0.05,0,0)" xlink:href="#ad"/><use transform="matrix(0.05,0,0,0.05,12.950000000000001,0)" xlink:href="#ae"/><use transform="matrix(0.05,0,0,0.05,23.900000000000002,0)" xlink:href="#ae"/><use transform="matrix(0.05,0,0,0.05,34.85,0)" xlink:href="#af"/></g><path d="M101-251c82-7 93 87 43 132L82-64C71-53 59-42 53-27h129V0H18c2-99 128-94 128-182 0-28-16-43-45-43s-46 15-49 41l-32-3c6-41 34-60 81-64" id="ag"/><path d="M101-251c68 0 85 55 85 127S166 4 100 4C33 4 14-52 14-124c0-73 17-127 87-127zm-1 229c47 0 54-49 54-102s-4-102-53-102c-51 0-55 48-55 102 0 53 5 102 54 102" id="ah"/><g id="p"><use transform="matrix(0.05,0,0,0.05,0,0)" xlink:href="#ag"/><use transform="matrix(0.05,0,0,0.05,10,0)" xlink:href="#ah"/><use transform="matrix(0.05,0,0,0.05,20,0)" xlink:href="#ah"/></g></defs></g></svg>