<svg xmlns="http://www.w3.org/2000/svg" xmlns:xlink="http://www.w3.org/1999/xlink" xmlns:lucid="lucid" width="1340" height="648"><g transform="translate(0 0)" lucid:page-tab-id="Xcy7oxO_ZdV~"><path d="M120 160c0 11.05-8.95 20-20 20s-20-8.95-20-20 8.95-20 20-20 20 8.95 20 20z" stroke="#666" stroke-width="2"/><path d="M101 303.26h-2v-41.2h2zm0-62.8h-2V181h2zM100 180l1-.04V181h-2v-1.13zM100 318.26L95.36 304h9.28z" fill="#999"/><path d="M100 321.5L94 303h12zM96.74 305l3.26 10.03 3.26-10.03z" fill="#999"/><use xlink:href="#a" transform="matrix(1,0,0,1,33.14999999999999,240.45031187519683) translate(0 14.4)"/><use xlink:href="#b" transform="matrix(1,0,0,1,33.14999999999999,240.45031187519683) translate(84.80000000000001 14.4)"/><path d="M396 322.5c-8.84 0-16 7.16-16 16v48c0 8.84 7.16 16 16 16h128c8.84 0 16-7.16 16-16v-48c0-8.84-7.16-16-16-16z" stroke="#666" stroke-width="2" fill="#a3d977"/><use xlink:href="#c" transform="matrix(1,0,0,1,388,330.5) translate(20.074999999999996 35.6)"/><use xlink:href="#d" transform="matrix(1,0,0,1,388,330.5) translate(65.975 35.6)"/><path d="M776 322.5c-8.84 0-16 7.16-16 16v48c0 8.84 7.16 16 16 16h108c8.84 0 16-7.16 16-16v-48c0-8.84-7.16-16-16-16z" stroke="#666" stroke-width="2" fill="#83bbe5"/><use xlink:href="#e" transform="matrix(1,0,0,1,768,330.5) translate(8.649999999999991 35.6)"/><use xlink:href="#b" transform="matrix(1,0,0,1,768,330.5) translate(66.44999999999999 35.6)"/><path d="M32 37c0-2.76 2.24-5 5-5h838c2.76 0 5 2.24 5 5v38c0 2.76-2.24 5-5 5H37c-2.76 0-5-2.24-5-5z" fill="none"/><use xlink:href="#f" transform="matrix(1,0,0,1,32,32) translate(2.01 28.444444444444446)"/><use xlink:href="#g" transform="matrix(1,0,0,1,32,32) translate(122.20753086419755 28.444444444444446)"/><use xlink:href="#h" transform="matrix(1,0,0,1,32,32) translate(242.9976543209877 28.444444444444446)"/><path d="M31.33 80H1728" stroke="#999" stroke-width="2" fill="none"/><path d="M36 322.5c-8.84 0-16 7.16-16 16v48c0 8.84 7.16 16 16 16h128c8.84 0 16-7.16 16-16v-48c0-8.84-7.16-16-16-16z" stroke="#666" stroke-width="2" fill="#83bbe5"/><use xlink:href="#i" transform="matrix(1,0,0,1,28,330.5) translate(27.074999999999996 24.799999999999997)"/><use xlink:href="#j" transform="matrix(1,0,0,1,28,330.5) translate(42.025 46.4)"/><path d="M181 362.5l5.44-.12 5.97-.37 6.63-.7 7.42-1.1 8.44-1.6 9.76-2.3 11.57-3.24 14.22-4.64 18.67-6.96 29.7-12.58 81.4-36.48 12.26-4.58 8.5-2.77 6.45-1.8 5.13-1.22 4.2-.8 3.56-.53 3.04-.32 2.65-.17 2.34-.04 2.1.04 1.86.12 1.7.18 1.55.23 1.43.27 1.32.3 1.23.35 1.15.38 1.08.4 1.02.43.97.45.93.5.88.5.85.54.82.57.78.6.76.63.74.67.72.7.7.75.68.8.67.83.66.9.64.97.63 1.05.62 1.13.6 1.22.6 1.34.6 1.46.55 1.62.54 1.8.4 1.53" stroke="#999" stroke-width="2" fill="none"/><path d="M181.06 363.5l-1.06.06v-2l.95-.06zM459.66 318.28l-6.1-13.7 9.23-.97z" fill="#999"/><path d="M460 321.5l-7.9-17.78 11.95-1.25zm-4.96-16.07l4.3 9.63 2.18-10.3z" fill="#999"/><use xlink:href="#k" transform="matrix(1,0,0,1,202.54408058071823,280.3229693544131) translate(0.0049999999999954525 14.4)"/><use xlink:href="#l" transform="matrix(1,0,0,1,202.54408058071823,280.3229693544131) translate(5.0049999999999955 14.4)"/><use xlink:href="#m" transform="matrix(1,0,0,1,202.54408058071823,280.3229693544131) translate(94.80499999999999 14.4)"/><path d="M541 362.5l5.68-.12 6.25-.4 6.94-.73 7.8-1.15 8.87-1.7 10.3-2.42 12.24-3.43 15.13-4.93 20.13-7.52 33.9-14.37 76.78-34.04 13.44-5.03 9.2-3 6.9-1.94 5.48-1.28 4.5-.86 3.76-.57 3.23-.34 2.82-.2 2.47-.05 2.2.05 1.97.12 1.8.2 1.63.23 1.5.3 1.4.3 1.3.38 1.2.4 1.14.4 1.07.46 1.03.47.97.5.92.54.9.58.84.6.83.6.78.67.78.7.75.73.74.78.7.83.7.87.7.95.67 1 .67 1.1.65 1.18.63 1.27.62 1.4.6 1.53.6 1.68.56 1.88.53 2.1.03.13" stroke="#999" stroke-width="2" fill="none"/><path d="M541.06 363.5l-1.06.06v-2l.95-.06zM829.68 318.28l-6.03-13.74 9.23-.92z" fill="#999"/><path d="M830 321.5l-7.82-17.8 11.97-1.2zm-4.88-16.1l4.24 9.66 2.25-10.3z" fill="#999"/><use xlink:href="#n" transform="matrix(1,0,0,1,670.6102180206309,264.8879666861665) translate(0.005000000000002558 14.4)"/><use xlink:href="#o" transform="matrix(1,0,0,1,670.6102180206309,264.8879666861665) translate(52.605000000000004 14.4)"/><path d="M101 438.42l.2 1.26 1.46 2 2.5.82h130.46v2H104.84l-3.4-1.1-2.13-2.92-.3-1.9v-16.84h2zm360 .24l-1.1 3.4-2.92 2.13-1.9.3H274.52v-2h180.4l1.26-.2 2-1.46.82-2.5V403.5h2zM461 403.5h-2v-1h2zM104.64 421h-9.28l4.64-14.26z" fill="#999"/><path d="M106 422H94l6-18.5zm-9.26-2h6.52L100 409.97z" fill="#999"/><use xlink:href="#p" transform="matrix(1,0,0,1,235.61666666666673,432.7) translate(0.004999999999999005 14.4)"/><path d="M101 479.92l.2 1.26 1.46 2 2.5.82h423.3v2H104.84l-3.4-1.1-2.13-2.92-.3-1.9v-58.34h2zm730 .24l-1.1 3.4-2.92 2.13-1.9.3H690.2v-2h134.72l1.26-.2 2-1.46.82-2.5V403.5h2zM831 403.5h-2v-1h2zM104.64 421h-9.28l4.64-14.26z" fill="#999"/><path d="M106 422H94l6-18.5zm-9.26-2h6.52L100 409.97z" fill="#999"/><use xlink:href="#q" transform="matrix(1,0,0,1,528.4583333333334,474.2) translate(0.0049999999999954525 14.4)"/><use xlink:href="#m" transform="matrix(1,0,0,1,528.4583333333334,474.2) translate(89.80499999999999 14.4)"/><path d="M1116 322.5c-8.84 0-16 7.16-16 16v48c0 8.84 7.16 16 16 16h128c8.84 0 16-7.16 16-16v-48c0-8.84-7.16-16-16-16z" stroke="#666" stroke-width="2" fill="#83bbe5"/><use xlink:href="#r" transform="matrix(1,0,0,1,1108,330.5) translate(23.574999999999996 35.6)"/><use xlink:href="#d" transform="matrix(1,0,0,1,1108,330.5) translate(62.475 35.6)"/><path d="M901 362.5l4.65-.1 5.27-.33 6.05-.64 7.05-1.05 8.38-1.6 10.2-2.4 12.95-3.63 17.5-5.72 28.05-10.5 98.77-39.84 13.16-4.3 9.2-2.58 6.94-1.64 5.5-1.05 4.5-.67 3.74-.4 3.2-.2 2.76-.06 2.4.05 2.15.13 1.9.2 1.73.26 1.55.3 1.43.33 1.3.36 1.22.4 1.12.4 1.05.45.97.46.92.48.87.5.82.53.78.55.76.57.72.6.7.62.65.64.65.7.62.7.6.76.58.8.57.84.54.9.53.96.5 1.03.5 1.1.46 1.2.3.87" stroke="#999" stroke-width="2" fill="none"/><path d="M901.07 363.5l-1.07.07v-2l.94-.07zM1179.6 318.3l-6.36-13.6 9.2-1.14z" fill="#999"/><path d="M1180 321.5l-8.25-17.62 11.93-1.48zm-5.27-15.97l4.47 9.55 2-10.36z" fill="#999"/><use xlink:href="#s" transform="matrix(1,0,0,1,958.907542612815,269.1479654402521) translate(0.0049999999999954525 14.4)"/><use xlink:href="#t" transform="matrix(1,0,0,1,958.907542612815,269.1479654402521) translate(97.75500000000001 14.4)"/><path d="M830 403.5l-.06 2.24-.18 2.06-.26 1.9-.36 1.76-.43 1.65-.48 1.57-.57 1.47-.63 1.4-.7 1.34-.75 1.28-.83 1.23-.9 1.18-1 1.16-1.06 1.12-1.16 1.1-1.27 1.05-1.4 1.04-1.5 1-1.7.98-1.83.94-2.05.9-2.27.85-2.52.8-2.8.7-3.13.6-3.48.46-3.84.3-4.2.07-4.58-.16-4.85-.46-5.06-.75-5.1-1.06-5.03-1.36-4.77-1.57-4.43-1.74-4-1.84-3.54-1.9-3.1-1.86-2.67-1.83-.17-.1-3.5-2.8-3.03-2.88-2.62-2.95-2.2-2.97-1.85-2.97-1.48-2.93-1.16-2.87-.87-2.8-.58-2.68-.33-2.6-.1-2.47.1-2.36.3-2.26.46-2.15.63-2.03.8-1.95.95-1.86 1.1-1.78 1.28-1.7 1.44-1.6 1.63-1.55 1.85-1.47 2.08-1.38 2.37-1.3 2.53-1.1" stroke="#999" stroke-width="2" fill="none"/><path d="M830.98 403.72l-1.96-.44.18-.78h2.05zM755.8 363.05l-13.27 6.98-1.56-9.14z" fill="#999"/><path d="M759 362.5l-17.22 9.05-2.03-11.85zm-15.7 6l9.32-4.9-10.44-1.52z" fill="#999"/><path d="M1116 505c-8.84 0-16 7.16-16 16v48c0 8.84 7.16 16 16 16h128c8.84 0 16-7.16 16-16v-48c0-8.84-7.16-16-16-16z" stroke="#666" stroke-width="2" fill="#83bbe5"/><use xlink:href="#u" transform="matrix(1,0,0,1,1108,513) translate(1.0749999999999886 35.6)"/><use xlink:href="#v" transform="matrix(1,0,0,1,1108,513) translate(64.02499999999999 35.6)"/><path d="M1181 485.76h-2v-31.3h2zm0-52.9h-2V403.5h2zM1181 403.5h-2v-1h2zM1180 500.76l-4.64-14.26h9.28z" fill="#999"/><path d="M1180 504l-6-18.5h12zm-3.26-16.5l3.26 10.03 3.26-10.03z" fill="#999"/><g><use xlink:href="#w" transform="matrix(1,0,0,1,1135.625,432.8666666666666) translate(0.005000000000002558 14.4)"/><use xlink:href="#x" transform="matrix(1,0,0,1,1135.625,432.8666666666666) translate(49.905 14.4)"/></g><path d="M101 602.92l.2 1.26 1.46 2 2.5.82H622.9v2H104.85l-3.4-1.1-2.13-2.92-.3-1.9V421.74h2zm1080 .24l-1.1 3.4-2.92 2.13-1.9.3H699.76v-2h475.16l1.26-.2 2-1.46.82-2.5V586h2zM1181 586h-2v-1h2zM104.64 421h-9.28l4.64-14.26z" fill="#999"/><path d="M106 422H94l6-18.5zm-9.26-2h6.52L100 409.97z" fill="#999"/><g><use xlink:href="#y" transform="matrix(1,0,0,1,622.9083333333333,597.2) translate(0.005000000000002558 14.4)"/></g><path d="M101 529.92l.2 1.26 1.46 2 2.5.82h744.3v2H104.84l-3.4-1.1-2.13-2.92-.3-1.9V421.74h2zm998-166.42h-53.84l-2.5.82-1.46 2-.2 1.26v162.58l-1.1 3.4-2.92 2.13-1.9.3H945.2v-2h89.72l1.26-.2 2-1.46.82-2.5V367.42l.3-1.9 2.13-2.9 3.4-1.12H1099zM1100 363.5h-1v-2h1zM104.64 421h-9.28l4.64-14.26z" fill="#999"/><path d="M106 422H94l6-18.5zm-9.26-2h6.52L100 409.97z" fill="#999"/><g><use xlink:href="#z" transform="matrix(1,0,0,1,849.4583333333333,524.2) translate(0.005000000000002558 14.4)"/><use xlink:href="#A" transform="matrix(1,0,0,1,849.4583333333333,524.2) translate(43.855000000000004 14.4)"/></g><defs><path fill="#333" d="M24 0v-248h52V0H24" id="B"/><path fill="#333" d="M135-194c87-1 58 113 63 194h-50c-7-57 23-157-34-157-59 0-34 97-39 157H25l-1-190h47c2 12-1 28 3 38 12-26 28-41 61-42" id="C"/><path fill="#333" d="M190-63c-7 42-38 67-86 67-59 0-84-38-90-98-12-110 154-137 174-36l-49 2c-2-19-15-32-35-32-30 0-35 28-38 64-6 74 65 87 74 30" id="D"/><path fill="#333" d="M110-194c64 0 96 36 96 99 0 64-35 99-97 99-61 0-95-36-95-99 0-62 34-99 96-99zm-1 164c35 0 45-28 45-65 0-40-10-65-43-65-34 0-45 26-45 65 0 36 10 65 43 65" id="E"/><path fill="#333" d="M220-157c-53 9-28 100-34 157h-49v-107c1-27-5-49-29-50C55-147 81-57 75 0H25l-1-190h47c2 12-1 28 3 38 10-53 101-56 108 0 13-22 24-43 59-42 82 1 51 116 57 194h-49v-107c-1-25-5-48-29-50" id="F"/><path fill="#333" d="M25-224v-37h50v37H25zM25 0v-190h50V0H25" id="G"/><path fill="#333" d="M195-6C206 82 75 100 31 46c-4-6-6-13-8-21l49-6c3 16 16 24 34 25 40 0 42-37 40-79-11 22-30 35-61 35-53 0-70-43-70-97 0-56 18-96 73-97 30 0 46 14 59 34l2-30h47zm-90-29c32 0 41-27 41-63 0-35-9-62-40-62-32 0-39 29-40 63 0 36 9 62 39 62" id="H"/><g id="a"><use transform="matrix(0.05,0,0,0.05,0,0)" xlink:href="#B"/><use transform="matrix(0.05,0,0,0.05,5,0)" xlink:href="#C"/><use transform="matrix(0.05,0,0,0.05,15.950000000000001,0)" xlink:href="#D"/><use transform="matrix(0.05,0,0,0.05,25.950000000000003,0)" xlink:href="#E"/><use transform="matrix(0.05,0,0,0.05,36.900000000000006,0)" xlink:href="#F"/><use transform="matrix(0.05,0,0,0.05,52.900000000000006,0)" xlink:href="#G"/><use transform="matrix(0.05,0,0,0.05,57.900000000000006,0)" xlink:href="#C"/><use transform="matrix(0.05,0,0,0.05,68.85000000000001,0)" xlink:href="#H"/></g><path fill="#333" d="M182-130c37 4 62 22 62 59C244 23 116-4 24 0v-248c84 5 203-23 205 63 0 31-19 50-47 55zM76-148c40-3 101 13 101-30 0-44-60-28-101-31v61zm0 110c48-3 116 14 116-37 0-48-69-32-116-35v72" id="I"/><path fill="#333" d="M123 10C108 53 80 86 19 72V37c35 8 53-11 59-39L3-190h52l48 148c12-52 28-100 44-148h51" id="J"/><path fill="#333" d="M115-3C79 11 28 4 28-45v-112H4v-33h27l15-45h31v45h36v33H77v99c-1 23 16 31 38 25v30" id="K"/><path fill="#333" d="M185-48c-13 30-37 53-82 52C43 2 14-33 14-96s30-98 90-98c62 0 83 45 84 108H66c0 31 8 55 39 56 18 0 30-7 34-22zm-45-69c5-46-57-63-70-21-2 6-4 13-4 21h74" id="L"/><path fill="#333" d="M137-138c1-29-70-34-71-4 15 46 118 7 119 86 1 83-164 76-172 9l43-7c4 19 20 25 44 25 33 8 57-30 24-41C81-84 22-81 20-136c-2-80 154-74 161-7" id="M"/><g id="b"><use transform="matrix(0.05,0,0,0.05,0,0)" xlink:href="#I"/><use transform="matrix(0.05,0,0,0.05,12.950000000000001,0)" xlink:href="#J"/><use transform="matrix(0.05,0,0,0.05,22.950000000000003,0)" xlink:href="#K"/><use transform="matrix(0.05,0,0,0.05,28.900000000000002,0)" xlink:href="#L"/><use transform="matrix(0.05,0,0,0.05,38.900000000000006,0)" xlink:href="#M"/></g><path fill="#333" d="M169-182c-1-43-94-46-97-3 18 66 151 10 154 114 3 95-165 93-204 36-6-8-10-19-12-30l50-8c3 46 112 56 116 5-17-69-150-10-154-114-4-87 153-88 188-35 5 8 8 18 10 28" id="N"/><path fill="#333" d="M133-34C117-15 103 5 69 4 32 3 11-16 11-54c-1-60 55-63 116-61 1-26-3-47-28-47-18 1-26 9-28 27l-52-2c7-38 36-58 82-57s74 22 75 68l1 82c-1 14 12 18 25 15v27c-30 8-71 5-69-32zm-48 3c29 0 43-24 42-57-32 0-66-3-65 30 0 17 8 27 23 27" id="O"/><path fill="#333" d="M135-150c-39-12-60 13-60 57V0H25l-1-190h47c2 13-1 29 3 40 6-28 27-53 61-41v41" id="P"/><g id="c"><use transform="matrix(0.05,0,0,0.05,0,0)" xlink:href="#N"/><use transform="matrix(0.05,0,0,0.05,12,0)" xlink:href="#K"/><use transform="matrix(0.05,0,0,0.05,17.95,0)" xlink:href="#O"/><use transform="matrix(0.05,0,0,0.05,27.950000000000003,0)" xlink:href="#P"/><use transform="matrix(0.05,0,0,0.05,34.95,0)" xlink:href="#K"/></g><path fill="#333" d="M24-248c93 1 206-16 204 79-1 75-69 88-152 82V0H24v-248zm52 121c47 0 100 7 100-41 0-47-54-39-100-39v80" id="Q"/><path fill="#333" d="M147 0L96-86 75-71V0H25v-261h50v150l67-79h53l-66 74L201 0h-54" id="R"/><g id="d"><use transform="matrix(0.05,0,0,0.05,0,0)" xlink:href="#Q"/><use transform="matrix(0.05,0,0,0.05,12,0)" xlink:href="#O"/><use transform="matrix(0.05,0,0,0.05,22,0)" xlink:href="#D"/><use transform="matrix(0.05,0,0,0.05,32,0)" xlink:href="#R"/><use transform="matrix(0.05,0,0,0.05,42,0)" xlink:href="#L"/><use transform="matrix(0.05,0,0,0.05,52,0)" xlink:href="#K"/></g><path fill="#333" d="M85 4C-2 5 27-109 22-190h50c7 57-23 150 33 157 60-5 35-97 40-157h50l1 190h-47c-2-12 1-28-3-38-12 25-28 42-61 42" id="S"/><path fill="#333" d="M121-226c-27-7-43 5-38 36h38v33H83V0H34v-157H6v-33h28c-9-59 32-81 87-68v32" id="T"/><g id="e"><use transform="matrix(0.05,0,0,0.05,0,0)" xlink:href="#I"/><use transform="matrix(0.05,0,0,0.05,12.950000000000001,0)" xlink:href="#S"/><use transform="matrix(0.05,0,0,0.05,23.900000000000002,0)" xlink:href="#T"/><use transform="matrix(0.05,0,0,0.05,29.85,0)" xlink:href="#T"/><use transform="matrix(0.05,0,0,0.05,35.800000000000004,0)" xlink:href="#L"/><use transform="matrix(0.05,0,0,0.05,45.800000000000004,0)" xlink:href="#P"/></g><path fill="#999" d="M182-130c37 4 62 22 62 59C244 23 116-4 24 0v-248c84 5 203-23 205 63 0 31-19 50-47 55zM76-148c40-3 101 13 101-30 0-44-60-28-101-31v61zm0 110c48-3 116 14 116-37 0-48-69-32-116-35v72" id="U"/><path fill="#999" d="M199 0l-22-63H83L61 0H9l90-248h61L250 0h-51zm-33-102l-36-108c-10 38-24 72-36 108h72" id="V"/><path fill="#999" d="M169-182c-1-43-94-46-97-3 18 66 151 10 154 114 3 95-165 93-204 36-6-8-10-19-12-30l50-8c3 46 112 56 116 5-17-69-150-10-154-114-4-87 153-88 188-35 5 8 8 18 10 28" id="W"/><path fill="#999" d="M24 0v-248h52V0H24" id="X"/><path fill="#999" d="M67-125c0 53 21 87 73 88 37 1 54-22 65-47l45 17C233-25 199 4 140 4 58 4 20-42 15-125 8-235 124-281 211-232c18 10 29 29 36 50l-46 12c-8-25-30-41-62-41-52 0-71 34-72 86" id="Y"/><g id="f"><use transform="matrix(0.09876543209876544,0,0,0.09876543209876544,0,0)" xlink:href="#U"/><use transform="matrix(0.09876543209876544,0,0,0.09876543209876544,25.58024691358025,0)" xlink:href="#V"/><use transform="matrix(0.09876543209876544,0,0,0.09876543209876544,51.1604938271605,0)" xlink:href="#W"/><use transform="matrix(0.09876543209876544,0,0,0.09876543209876544,74.8641975308642,0)" xlink:href="#X"/><use transform="matrix(0.09876543209876544,0,0,0.09876543209876544,84.74074074074075,0)" xlink:href="#Y"/></g><path fill="#999" d="M136-208V0H84v-208H4v-40h212v40h-80" id="Z"/><path fill="#999" d="M24 0v-248h195v40H76v63h132v40H76v65h150V0H24" id="aa"/><g id="g"><use transform="matrix(0.09876543209876544,0,0,0.09876543209876544,0,0)" xlink:href="#W"/><use transform="matrix(0.09876543209876544,0,0,0.09876543209876544,23.703703703703706,0)" xlink:href="#Z"/><use transform="matrix(0.09876543209876544,0,0,0.09876543209876544,42.66666666666667,0)" xlink:href="#V"/><use transform="matrix(0.09876543209876544,0,0,0.09876543209876544,65.58024691358025,0)" xlink:href="#Z"/><use transform="matrix(0.09876543209876544,0,0,0.09876543209876544,87.20987654320989,0)" xlink:href="#aa"/></g><path fill="#999" d="M24-248c120-7 223 5 221 122C244-46 201 0 124 0H24v-248zM76-40c74 7 117-18 117-86 0-67-45-88-117-82v168" id="ab"/><path fill="#999" d="M67-125c0 54 23 88 75 88 28 0 53-7 68-21v-34h-60v-39h108v91C232-14 192 4 140 4 58 4 20-42 15-125 8-236 126-280 215-234c19 10 29 26 37 47l-47 15c-11-23-29-39-63-39-53 1-75 33-75 86" id="ac"/><path fill="#999" d="M240-174c0 40-23 61-54 70L253 0h-59l-57-94H76V0H24v-248c93 4 217-23 216 74zM76-134c48-2 112 12 112-38 0-48-66-32-112-35v73" id="ad"/><path fill="#999" d="M230 0l2-204L168 0h-37L68-204 70 0H24v-248h70l56 185 57-185h69V0h-46" id="ae"/><g id="h"><use transform="matrix(0.09876543209876544,0,0,0.09876543209876544,0,0)" xlink:href="#ab"/><use transform="matrix(0.09876543209876544,0,0,0.09876543209876544,25.58024691358025,0)" xlink:href="#X"/><use transform="matrix(0.09876543209876544,0,0,0.09876543209876544,35.4567901234568,0)" xlink:href="#V"/><use transform="matrix(0.09876543209876544,0,0,0.09876543209876544,61.03703703703705,0)" xlink:href="#ac"/><use transform="matrix(0.09876543209876544,0,0,0.09876543209876544,88.69135802469137,0)" xlink:href="#ad"/><use transform="matrix(0.09876543209876544,0,0,0.09876543209876544,114.27160493827161,0)" xlink:href="#V"/><use transform="matrix(0.09876543209876544,0,0,0.09876543209876544,139.85185185185188,0)" xlink:href="#ae"/></g><path fill="#333" d="M14-72v-43h91v43H14" id="af"/><path fill="#333" d="M199 0l-22-63H83L61 0H9l90-248h61L250 0h-51zm-33-102l-36-108c-10 38-24 72-36 108h72" id="ag"/><path fill="#333" d="M135-194c52 0 70 43 70 98 0 56-19 99-73 100-30 1-46-15-58-35L72 0H24l1-261h50v104c11-23 29-37 60-37zM114-30c31 0 40-27 40-66 0-37-7-63-39-63s-41 28-41 65c0 36 8 64 40 64" id="ah"/><path fill="#333" d="M25 0v-261h50V0H25" id="ai"/><g id="i"><use transform="matrix(0.05,0,0,0.05,0,0)" xlink:href="#Q"/><use transform="matrix(0.05,0,0,0.05,12,0)" xlink:href="#P"/><use transform="matrix(0.05,0,0,0.05,19,0)" xlink:href="#L"/><use transform="matrix(0.05,0,0,0.05,29,0)" xlink:href="#af"/><use transform="matrix(0.05,0,0,0.05,34.95,0)" xlink:href="#ag"/><use transform="matrix(0.05,0,0,0.05,47.900000000000006,0)" xlink:href="#F"/><use transform="matrix(0.05,0,0,0.05,63.900000000000006,0)" xlink:href="#ah"/><use transform="matrix(0.05,0,0,0.05,74.85000000000001,0)" xlink:href="#ai"/><use transform="matrix(0.05,0,0,0.05,79.85000000000001,0)" xlink:href="#L"/></g><path fill="#333" d="M114-157C55-157 80-60 75 0H25v-261h50l-1 109c12-26 28-41 61-42 86-1 58 113 63 194h-50c-7-57 23-157-34-157" id="aj"/><g id="j"><use transform="matrix(0.05,0,0,0.05,0,0)" xlink:href="#N"/><use transform="matrix(0.05,0,0,0.05,12,0)" xlink:href="#L"/><use transform="matrix(0.05,0,0,0.05,22,0)" xlink:href="#O"/><use transform="matrix(0.05,0,0,0.05,32,0)" xlink:href="#P"/><use transform="matrix(0.05,0,0,0.05,39,0)" xlink:href="#D"/><use transform="matrix(0.05,0,0,0.05,49,0)" xlink:href="#aj"/></g><path fill="#333" d="M30-248c87 1 191-15 191 75 0 78-77 80-158 76V0H30v-248zm33 125c57 0 124 11 124-50 0-59-68-47-124-48v98" id="ak"/><path fill="#333" d="M114-163C36-179 61-72 57 0H25l-1-190h30c1 12-1 29 2 39 6-27 23-49 58-41v29" id="al"/><path fill="#333" d="M100-194c63 0 86 42 84 106H49c0 40 14 67 53 68 26 1 43-12 49-29l28 8c-11 28-37 45-77 45C44 4 14-33 15-96c1-61 26-98 85-98zm52 81c6-60-76-77-97-28-3 7-6 17-6 28h103" id="am"/><path fill="#333" d="M16-82v-28h88v28H16" id="an"/><path fill="#333" d="M205 0l-28-72H64L36 0H1l101-248h38L239 0h-34zm-38-99l-47-123c-12 45-31 82-46 123h93" id="ao"/><path fill="#333" d="M210-169c-67 3-38 105-44 169h-31v-121c0-29-5-50-35-48C34-165 62-65 56 0H25l-1-190h30c1 10-1 24 2 32 10-44 99-50 107 0 11-21 27-35 58-36 85-2 47 119 55 194h-31v-121c0-29-5-49-35-48" id="ap"/><path fill="#333" d="M115-194c53 0 69 39 70 98 0 66-23 100-70 100C84 3 66-7 56-30L54 0H23l1-261h32v101c10-23 28-34 59-34zm-8 174c40 0 45-34 45-75 0-40-5-75-45-74-42 0-51 32-51 76 0 43 10 73 51 73" id="aq"/><path fill="#333" d="M24 0v-261h32V0H24" id="ar"/><g id="l"><use transform="matrix(0.05,0,0,0.05,0,0)" xlink:href="#ak"/><use transform="matrix(0.05,0,0,0.05,12,0)" xlink:href="#al"/><use transform="matrix(0.05,0,0,0.05,17.95,0)" xlink:href="#am"/><use transform="matrix(0.05,0,0,0.05,27.950000000000003,0)" xlink:href="#an"/><use transform="matrix(0.05,0,0,0.05,33.9,0)" xlink:href="#ao"/><use transform="matrix(0.05,0,0,0.05,45.9,0)" xlink:href="#ap"/><use transform="matrix(0.05,0,0,0.05,60.85,0)" xlink:href="#aq"/><use transform="matrix(0.05,0,0,0.05,70.85,0)" xlink:href="#ar"/><use transform="matrix(0.05,0,0,0.05,74.8,0)" xlink:href="#am"/></g><path fill="#333" d="M30-248c118-7 216 8 213 122C240-48 200 0 122 0H30v-248zM63-27c89 8 146-16 146-99s-60-101-146-95v194" id="as"/><path fill="#333" d="M59-47c-2 24 18 29 38 22v24C64 9 27 4 27-40v-127H5v-23h24l9-43h21v43h35v23H59v120" id="at"/><path fill="#333" d="M96-169c-40 0-48 33-48 73s9 75 48 75c24 0 41-14 43-38l32 2c-6 37-31 61-74 61-59 0-76-41-82-99-10-93 101-131 147-64 4 7 5 14 7 22l-32 3c-4-21-16-35-41-35" id="au"/><path fill="#333" d="M85-194c31 0 48 13 60 33l-1-100h32l1 261h-30c-2-10 0-23-3-31C134-8 116 4 85 4 32 4 16-35 15-94c0-66 23-100 70-100zm9 24c-40 0-46 34-46 75 0 40 6 74 45 74 42 0 51-32 51-76 0-42-9-74-50-73" id="av"/><g id="m"><use transform="matrix(0.05,0,0,0.05,0,0)" xlink:href="#as"/><use transform="matrix(0.05,0,0,0.05,12.950000000000001,0)" xlink:href="#am"/><use transform="matrix(0.05,0,0,0.05,22.950000000000003,0)" xlink:href="#at"/><use transform="matrix(0.05,0,0,0.05,27.950000000000003,0)" xlink:href="#am"/><use transform="matrix(0.05,0,0,0.05,37.95,0)" xlink:href="#au"/><use transform="matrix(0.05,0,0,0.05,46.95,0)" xlink:href="#at"/><use transform="matrix(0.05,0,0,0.05,51.95,0)" xlink:href="#am"/><use transform="matrix(0.05,0,0,0.05,61.95,0)" xlink:href="#av"/></g><path fill="#333" d="M160-131c35 5 61 23 61 61C221 17 115-2 30 0v-248c76 3 177-17 177 60 0 33-19 50-47 57zm-97-11c50-1 110 9 110-42 0-47-63-36-110-37v79zm0 115c55-2 124 14 124-45 0-56-70-42-124-44v89" id="aw"/><path fill="#333" d="M84 4C-5 8 30-112 23-190h32v120c0 31 7 50 39 49 72-2 45-101 50-169h31l1 190h-30c-1-10 1-25-2-33-11 22-28 36-60 37" id="ax"/><path fill="#333" d="M101-234c-31-9-42 10-38 44h38v23H63V0H32v-167H5v-23h27c-7-52 17-82 69-68v24" id="ay"/><g id="n"><use transform="matrix(0.05,0,0,0.05,0,0)" xlink:href="#aw"/><use transform="matrix(0.05,0,0,0.05,12,0)" xlink:href="#ax"/><use transform="matrix(0.05,0,0,0.05,22,0)" xlink:href="#ay"/><use transform="matrix(0.05,0,0,0.05,26.649999999999995,0)" xlink:href="#ay"/><use transform="matrix(0.05,0,0,0.05,31.649999999999995,0)" xlink:href="#am"/><use transform="matrix(0.05,0,0,0.05,41.65,0)" xlink:href="#al"/></g><path fill="#333" d="M179-190L93 31C79 59 56 82 12 73V49c39 6 53-20 64-50L1-190h34L92-34l54-156h33" id="az"/><path fill="#333" d="M135-143c-3-34-86-38-87 0 15 53 115 12 119 90S17 21 10-45l28-5c4 36 97 45 98 0-10-56-113-15-118-90-4-57 82-63 122-42 12 7 21 19 24 35" id="aA"/><g id="o"><use transform="matrix(0.05,0,0,0.05,0,0)" xlink:href="#aw"/><use transform="matrix(0.05,0,0,0.05,12,0)" xlink:href="#az"/><use transform="matrix(0.05,0,0,0.05,21,0)" xlink:href="#at"/><use transform="matrix(0.05,0,0,0.05,26,0)" xlink:href="#am"/><use transform="matrix(0.05,0,0,0.05,36,0)" xlink:href="#aA"/></g><path fill="#333" d="M100-194c62-1 85 37 85 99 1 63-27 99-86 99S16-35 15-95c0-66 28-99 85-99zM99-20c44 1 53-31 53-75 0-43-8-75-51-75s-53 32-53 75 10 74 51 75" id="aB"/><path fill="#333" d="M115-194c55 1 70 41 70 98S169 2 115 4C84 4 66-9 55-30l1 105H24l-1-265h31l2 30c10-21 28-34 59-34zm-8 174c40 0 45-34 45-75s-6-73-45-74c-42 0-51 32-51 76 0 43 10 73 51 73" id="aC"/><g id="p"><use transform="matrix(0.05,0,0,0.05,0,0)" xlink:href="#as"/><use transform="matrix(0.05,0,0,0.05,12.950000000000001,0)" xlink:href="#al"/><use transform="matrix(0.05,0,0,0.05,18.900000000000002,0)" xlink:href="#aB"/><use transform="matrix(0.05,0,0,0.05,28.900000000000002,0)" xlink:href="#aC"/></g><g id="q"><use transform="matrix(0.05,0,0,0.05,0,0)" xlink:href="#ak"/><use transform="matrix(0.05,0,0,0.05,12,0)" xlink:href="#al"/><use transform="matrix(0.05,0,0,0.05,17.95,0)" xlink:href="#am"/><use transform="matrix(0.05,0,0,0.05,27.950000000000003,0)" xlink:href="#an"/><use transform="matrix(0.05,0,0,0.05,33.9,0)" xlink:href="#ao"/><use transform="matrix(0.05,0,0,0.05,45.9,0)" xlink:href="#ap"/><use transform="matrix(0.05,0,0,0.05,60.85,0)" xlink:href="#aq"/><use transform="matrix(0.05,0,0,0.05,70.85,0)" xlink:href="#ar"/><use transform="matrix(0.05,0,0,0.05,74.8,0)" xlink:href="#am"/></g><path fill="#333" d="M24 0v-248h195v40H76v63h132v40H76v65h150V0H24" id="aD"/><path fill="#333" d="M88-194c31-1 46 15 58 34l-1-101h50l1 261h-48c-2-10 0-23-3-31C134-8 116 4 84 4 32 4 16-41 15-95c0-56 19-97 73-99zm17 164c33 0 40-30 41-66 1-37-9-64-41-64s-38 30-39 65c0 43 13 65 39 65" id="aE"/><g id="r"><use transform="matrix(0.05,0,0,0.05,0,0)" xlink:href="#aD"/><use transform="matrix(0.05,0,0,0.05,12,0)" xlink:href="#C"/><use transform="matrix(0.05,0,0,0.05,22.950000000000003,0)" xlink:href="#aE"/></g><path fill="#333" d="M127-220V0H93v-220H8v-28h204v28h-85" id="aF"/><path fill="#333" d="M24-231v-30h32v30H24zM24 0v-190h32V0H24" id="aG"/><path fill="#333" d="M117-194c89-4 53 116 60 194h-32v-121c0-31-8-49-39-48C34-167 62-67 57 0H25l-1-190h30c1 10-1 24 2 32 11-22 29-35 61-36" id="aH"/><path fill="#333" d="M141-36C126-15 110 5 73 4 37 3 15-17 15-53c-1-64 63-63 125-63 3-35-9-54-41-54-24 1-41 7-42 31l-33-3c5-37 33-52 76-52 45 0 72 20 72 64v82c-1 20 7 32 28 27v20c-31 9-61-2-59-35zM48-53c0 20 12 33 32 33 41-3 63-29 60-74-43 2-92-5-92 41" id="aI"/><path fill="#333" d="M177-190C167-65 218 103 67 71c-23-6-38-20-44-43l32-5c15 47 100 32 89-28v-30C133-14 115 1 83 1 29 1 15-40 15-95c0-56 16-97 71-98 29-1 48 16 59 35 1-10 0-23 2-32h30zM94-22c36 0 50-32 50-73 0-42-14-75-50-75-39 0-46 34-46 75s6 73 46 73" id="aJ"/><g id="s"><use transform="matrix(0.05,0,0,0.05,0,0)" xlink:href="#aF"/><use transform="matrix(0.05,0,0,0.05,8.950000000000001,0)" xlink:href="#am"/><use transform="matrix(0.05,0,0,0.05,18.950000000000003,0)" xlink:href="#al"/><use transform="matrix(0.05,0,0,0.05,24.900000000000002,0)" xlink:href="#ap"/><use transform="matrix(0.05,0,0,0.05,39.85,0)" xlink:href="#aG"/><use transform="matrix(0.05,0,0,0.05,43.800000000000004,0)" xlink:href="#aH"/><use transform="matrix(0.05,0,0,0.05,53.800000000000004,0)" xlink:href="#aI"/><use transform="matrix(0.05,0,0,0.05,63.800000000000004,0)" xlink:href="#at"/><use transform="matrix(0.05,0,0,0.05,68.80000000000001,0)" xlink:href="#aG"/><use transform="matrix(0.05,0,0,0.05,72.75000000000001,0)" xlink:href="#aH"/><use transform="matrix(0.05,0,0,0.05,82.75000000000001,0)" xlink:href="#aJ"/></g><path fill="#333" d="M185-189c-5-48-123-54-124 2 14 75 158 14 163 119 3 78-121 87-175 55-17-10-28-26-33-46l33-7c5 56 141 63 141-1 0-78-155-14-162-118-5-82 145-84 179-34 5 7 8 16 11 25" id="aK"/><path fill="#333" d="M145-31C134-9 116 4 85 4 32 4 16-35 15-94c0-59 17-99 70-100 32-1 48 14 60 33 0-11-1-24 2-32h30l-1 268h-32zM93-21c41 0 51-33 51-76s-8-73-50-73c-40 0-46 35-46 75s5 74 45 74" id="aL"/><g id="t"><use transform="matrix(0.05,0,0,0.05,0,0)" xlink:href="#aK"/><use transform="matrix(0.05,0,0,0.05,12,0)" xlink:href="#am"/><use transform="matrix(0.05,0,0,0.05,22,0)" xlink:href="#aL"/><use transform="matrix(0.05,0,0,0.05,32,0)" xlink:href="#ax"/><use transform="matrix(0.05,0,0,0.05,42,0)" xlink:href="#am"/><use transform="matrix(0.05,0,0,0.05,52,0)" xlink:href="#aH"/><use transform="matrix(0.05,0,0,0.05,62,0)" xlink:href="#au"/><use transform="matrix(0.05,0,0,0.05,71,0)" xlink:href="#am"/></g><g id="u"><use transform="matrix(0.05,0,0,0.05,0,0)" xlink:href="#Q"/><use transform="matrix(0.05,0,0,0.05,12,0)" xlink:href="#O"/><use transform="matrix(0.05,0,0,0.05,22,0)" xlink:href="#D"/><use transform="matrix(0.05,0,0,0.05,32,0)" xlink:href="#R"/><use transform="matrix(0.05,0,0,0.05,42,0)" xlink:href="#L"/><use transform="matrix(0.05,0,0,0.05,52,0)" xlink:href="#K"/></g><path fill="#333" d="M240-174c0 40-23 61-54 70L253 0h-59l-57-94H76V0H24v-248c93 4 217-23 216 74zM76-134c48-2 112 12 112-38 0-48-66-32-112-35v73" id="aM"/><path fill="#333" d="M128 0H69L1-190h53L99-40l48-150h52" id="aN"/><g id="v"><use transform="matrix(0.05,0,0,0.05,0,0)" xlink:href="#aM"/><use transform="matrix(0.05,0,0,0.05,12.950000000000001,0)" xlink:href="#L"/><use transform="matrix(0.05,0,0,0.05,22.950000000000003,0)" xlink:href="#D"/><use transform="matrix(0.05,0,0,0.05,32.95,0)" xlink:href="#L"/><use transform="matrix(0.05,0,0,0.05,42.95,0)" xlink:href="#G"/><use transform="matrix(0.05,0,0,0.05,47.95,0)" xlink:href="#aN"/><use transform="matrix(0.05,0,0,0.05,57.95,0)" xlink:href="#L"/><use transform="matrix(0.05,0,0,0.05,67.95,0)" xlink:href="#aE"/></g><path fill="#333" d="M137 0h-34L2-248h35l83 218 83-218h36" id="aO"/><g id="w"><use transform="matrix(0.05,0,0,0.05,0,0)" xlink:href="#aO"/><use transform="matrix(0.05,0,0,0.05,11,0)" xlink:href="#am"/><use transform="matrix(0.05,0,0,0.05,21,0)" xlink:href="#al"/><use transform="matrix(0.05,0,0,0.05,26.950000000000003,0)" xlink:href="#aG"/><use transform="matrix(0.05,0,0,0.05,30.899999999999995,0)" xlink:href="#ay"/><use transform="matrix(0.05,0,0,0.05,35.9,0)" xlink:href="#az"/></g><path fill="#333" d="M212-179c-10-28-35-45-73-45-59 0-87 40-87 99 0 60 29 101 89 101 43 0 62-24 78-52l27 14C228-24 195 4 139 4 59 4 22-46 18-125c-6-104 99-153 187-111 19 9 31 26 39 46" id="aP"/><path fill="#333" d="M233-177c-1 41-23 64-60 70L243 0h-38l-65-103H63V0H30v-248c88 3 205-21 203 71zM63-129c60-2 137 13 137-47 0-61-80-42-137-45v92" id="aQ"/><g id="x"><use transform="matrix(0.05,0,0,0.05,0,0)" xlink:href="#aP"/><use transform="matrix(0.05,0,0,0.05,12.950000000000001,0)" xlink:href="#aQ"/><use transform="matrix(0.05,0,0,0.05,25.900000000000002,0)" xlink:href="#aP"/></g><g id="y"><use transform="matrix(0.05,0,0,0.05,0,0)" xlink:href="#aP"/><use transform="matrix(0.05,0,0,0.05,12.950000000000001,0)" xlink:href="#aB"/><use transform="matrix(0.05,0,0,0.05,22.950000000000003,0)" xlink:href="#ap"/><use transform="matrix(0.05,0,0,0.05,37.900000000000006,0)" xlink:href="#aC"/><use transform="matrix(0.05,0,0,0.05,47.900000000000006,0)" xlink:href="#ar"/><use transform="matrix(0.05,0,0,0.05,51.85,0)" xlink:href="#am"/><use transform="matrix(0.05,0,0,0.05,61.85,0)" xlink:href="#at"/><use transform="matrix(0.05,0,0,0.05,66.85000000000001,0)" xlink:href="#am"/></g><g id="z"><use transform="matrix(0.05,0,0,0.05,0,0)" xlink:href="#aP"/><use transform="matrix(0.05,0,0,0.05,12.950000000000001,0)" xlink:href="#aQ"/><use transform="matrix(0.05,0,0,0.05,25.900000000000002,0)" xlink:href="#aP"/></g><path fill="#333" d="M33 0v-248h34V0H33" id="aR"/><path fill="#333" d="M108 0H70L1-190h34L89-25l56-165h34" id="aS"/><g id="A"><use transform="matrix(0.05,0,0,0.05,0,0)" xlink:href="#aR"/><use transform="matrix(0.05,0,0,0.05,5,0)" xlink:href="#aH"/><use transform="matrix(0.05,0,0,0.05,15,0)" xlink:href="#aS"/><use transform="matrix(0.05,0,0,0.05,24,0)" xlink:href="#aI"/><use transform="matrix(0.05,0,0,0.05,34,0)" xlink:href="#ar"/><use transform="matrix(0.05,0,0,0.05,37.95,0)" xlink:href="#aG"/><use transform="matrix(0.05,0,0,0.05,41.900000000000006,0)" xlink:href="#av"/></g></defs></g></svg>